<svg xmlns="http://www.w3.org/2000/svg" width="660" height="300" viewBox="0 0 660 300">
  <defs>
    <linearGradient id="bg" x1="0%" y1="0%" x2="100%" y2="100%">
      <stop offset="0%" stop-color="#44403C"/>
      <stop offset="100%" stop-color="#1C1917"/>
    </linearGradient>
    <linearGradient id="accent" x1="0%" y1="0%" x2="0%" y2="100%">
      <stop offset="0%" stop-color="#EA580C"/>
      <stop offset="100%" stop-color="#F59E0B"/>
    </linearGradient>
    <linearGradient id="accentH" x1="0%" y1="0%" x2="100%" y2="0%">
      <stop offset="0%" stop-color="#EA580C"/>
      <stop offset="100%" stop-color="#F59E0B"/>
    </linearGradient>
  </defs>

  <!-- Background -->
  <rect width="660" height="300" fill="url(#bg)"/>

  <!-- Texture dots -->
  <g fill="#D6D3D1" opacity="0.06">
    <circle cx="30" cy="20" r="1.2"/>
    <circle cx="80" cy="45" r="1"/>
    <circle cx="130" cy="15" r="1.4"/>
    <circle cx="200" cy="35" r="1.1"/>
    <circle cx="260" cy="10" r="1.3"/>
    <circle cx="320" cy="50" r="1"/>
    <circle cx="390" cy="22" r="1.2"/>
    <circle cx="450" cy="40" r="1.4"/>
    <circle cx="520" cy="12" r="1.1"/>
    <circle cx="600" cy="38" r="1.3"/>
    <circle cx="640" cy="18" r="1"/>
    <circle cx="55" cy="75" r="1.2"/>
    <circle cx="110" cy="90" r="1"/>
    <circle cx="170" cy="68" r="1.3"/>
    <circle cx="240" cy="85" r="1.1"/>
    <circle cx="300" cy="72" r="1.4"/>
    <circle cx="360" cy="95" r="1"/>
    <circle cx="430" cy="78" r="1.2"/>
    <circle cx="490" cy="62" r="1.3"/>
    <circle cx="560" cy="88" r="1.1"/>
    <circle cx="625" cy="70" r="1.4"/>
    <circle cx="20" cy="120" r="1"/>
    <circle cx="90" cy="135" r="1.3"/>
    <circle cx="155" cy="115" r="1.2"/>
    <circle cx="215" cy="140" r="1"/>
    <circle cx="280" cy="125" r="1.4"/>
    <circle cx="345" cy="145" r="1.1"/>
    <circle cx="415" cy="118" r="1.3"/>
    <circle cx="475" cy="138" r="1.2"/>
    <circle cx="545" cy="122" r="1"/>
    <circle cx="610" cy="142" r="1.4"/>
    <circle cx="650" cy="110" r="1.1"/>
    <circle cx="40" cy="175" r="1.2"/>
    <circle cx="100" cy="190" r="1.4"/>
    <circle cx="165" cy="168" r="1"/>
    <circle cx="230" cy="185" r="1.3"/>
    <circle cx="295" cy="172" r="1.2"/>
    <circle cx="360" cy="195" r="1"/>
    <circle cx="420" cy="178" r="1.4"/>
    <circle cx="485" cy="192" r="1.1"/>
    <circle cx="550" cy="165" r="1.3"/>
    <circle cx="615" cy="188" r="1"/>
    <circle cx="645" cy="175" r="1.2"/>
    <circle cx="25" cy="225" r="1.1"/>
    <circle cx="85" cy="240" r="1.3"/>
    <circle cx="150" cy="218" r="1"/>
    <circle cx="210" cy="235" r="1.4"/>
    <circle cx="275" cy="222" r="1.2"/>
    <circle cx="500" cy="215" r="1"/>
    <circle cx="565" cy="238" r="1.3"/>
    <circle cx="630" cy="225" r="1.1"/>
    <circle cx="655" cy="245" r="1.4"/>
    <circle cx="35" cy="270" r="1.2"/>
    <circle cx="95" cy="280" r="1"/>
    <circle cx="160" cy="265" r="1.3"/>
    <circle cx="225" cy="275" r="1.4"/>
    <circle cx="290" cy="260" r="1.1"/>
  </g>

  <!-- Left accent line -->
  <rect x="50" y="40" width="4" height="220" fill="url(#accent)" rx="2"/>

  <!-- Title -->
  <text font-family="'PingFang SC','Microsoft YaHei','Noto Sans SC',sans-serif" font-weight="700" font-size="22" fill="#FAFAF9">
    <tspan x="70" dy="0" y="90">Codex Subagents 正式开放：</tspan>
    <tspan x="70" dy="30">多 Agent 并行，终于不用</tspan>
    <tspan x="70" dy="28">手动拆任务了</tspan>
  </text>

  <!-- Subtitle -->
  <text x="70" y="192" font-family="'PingFang SC','Microsoft YaHei','Noto Sans SC',sans-serif" font-size="13" fill="#A8A29E">OpenAI Codex 的 Subagents 功能今天正式 GA，可以让多个专项 Agent 并行工作</text>

  <!-- Tags -->
  <rect x="70" y="228" width="78" height="24" rx="12" fill="#57534E" fill-opacity="0.4"/>
  <text x="109" y="244" font-family="'PingFang SC','Microsoft YaHei','Noto Sans SC',sans-serif" font-size="12" fill="#D6D3D1" text-anchor="middle">多Agent协作</text>

  <rect x="158" y="228" width="66" height="24" rx="12" fill="#57534E" fill-opacity="0.4"/>
  <text x="191" y="244" font-family="'PingFang SC','Microsoft YaHei','Noto Sans SC',sans-serif" font-size="12" fill="#D6D3D1" text-anchor="middle">上手指南</text>

  <rect x="234" y="228" width="66" height="24" rx="12" fill="#57534E" fill-opacity="0.4"/>
  <text x="267" y="244" font-family="'PingFang SC','Microsoft YaHei','Noto Sans SC',sans-serif" font-size="12" fill="#D6D3D1" text-anchor="middle">Codex</text>

  <!-- Decorative elements - bottom right corner only (x>=480, y>=180) -->
  <!-- Node graph: three circles connected by lines, representing multi-agent network -->
  <g opacity="0.22" stroke="#EA580C" stroke-width="1.5" fill="none">
    <!-- Connection lines -->
    <line x1="510" y1="210" x2="548" y2="235"/>
    <line x1="510" y1="210" x2="548" y2="188"/>
    <line x1="548" y1="235" x2="590" y2="218"/>
    <line x1="548" y1="188" x2="590" y2="218"/>
    <!-- Nodes -->
    <circle cx="510" cy="210" r="8"/>
    <circle cx="548" cy="235" r="6"/>
    <circle cx="548" cy="188" r="6"/>
    <circle cx="590" cy="218" r="9"/>
  </g>
  <!-- Small parallel lines suggesting parallel execution -->
  <g opacity="0.18" stroke="#F59E0B" stroke-width="1.5" stroke-linecap="round">
    <line x1="502" y1="255" x2="530" y2="255"/>
    <line x1="502" y1="262" x2="530" y2="262"/>
    <line x1="502" y1="269" x2="530" y2="269"/>
    <line x1="538" y1="255" x2="566" y2="255"/>
    <line x1="538" y1="262" x2="566" y2="262"/>
    <line x1="538" y1="269" x2="566" y2="269"/>
    <line x1="574" y1="255" x2="602" y2="255"/>
    <line x1="574" y1="262" x2="602" y2="262"/>
    <line x1="574" y1="269" x2="602" y2="269"/>
  </g>

  <!-- Bottom color bar -->
  <rect x="0" y="293" width="660" height="7" fill="url(#accentH)"/>
</svg>