<svg width="660" height="300" viewBox="0 0 660 300" xmlns="http://www.w3.org/2000/svg">
  <defs>
    <linearGradient id="bgGrad" x1="0" y1="0" x2="1" y2="1">
      <stop offset="0%" stop-color="#44403C"/>
      <stop offset="100%" stop-color="#1C1917"/>
    </linearGradient>
    <linearGradient id="accentGrad" x1="0" y1="0" x2="1" y2="0">
      <stop offset="0%" stop-color="#EA580C"/>
      <stop offset="100%" stop-color="#F59E0B"/>
    </linearGradient>
    <filter id="softGlow" x="-20%" y="-20%" width="140%" height="140%">
      <feGaussianBlur stdDeviation="1.2"/>
    </filter>
  </defs>

  <!-- Background -->
  <rect width="660" height="300" fill="url(#bgGrad)"/>

  <!-- Paper grain / scattered texture -->
  <g fill="#D6D3D1" opacity="0.06">
    <circle cx="18" cy="22" r="1.8"/><circle cx="58" cy="36" r="1.2"/><circle cx="92" cy="18" r="1.6"/>
    <circle cx="136" cy="28" r="1.1"/><circle cx="175" cy="16" r="1.7"/><circle cx="214" cy="40" r="1.3"/>
    <circle cx="260" cy="20" r="1.5"/><circle cx="305" cy="34" r="1.1"/><circle cx="348" cy="14" r="1.8"/>
    <circle cx="392" cy="26" r="1.2"/><circle cx="438" cy="18" r="1.6"/><circle cx="482" cy="36" r="1.1"/>
    <circle cx="526" cy="20" r="1.7"/><circle cx="568" cy="30" r="1.3"/><circle cx="612" cy="16" r="1.5"/>
    <circle cx="640" cy="42" r="1.2"/>

    <circle cx="30" cy="86" r="1.4"/><circle cx="72" cy="74" r="1.1"/><circle cx="118" cy="92" r="1.7"/>
    <circle cx="156" cy="82" r="1.2"/><circle cx="201" cy="96" r="1.6"/><circle cx="244" cy="78" r="1.1"/>
    <circle cx="286" cy="90" r="1.5"/><circle cx="331" cy="76" r="1.2"/><circle cx="374" cy="88" r="1.7"/>
    <circle cx="418" cy="74" r="1.1"/><circle cx="459" cy="94" r="1.6"/><circle cx="503" cy="84" r="1.2"/>
    <circle cx="548" cy="92" r="1.5"/><circle cx="594" cy="78" r="1.1"/><circle cx="632" cy="88" r="1.7"/>

    <circle cx="24" cy="150" r="1.5"/><circle cx="68" cy="138" r="1.1"/><circle cx="110" cy="154" r="1.6"/>
    <circle cx="152" cy="142" r="1.2"/><circle cx="194" cy="160" r="1.7"/><circle cx="236" cy="146" r="1.1"/>
    <circle cx="279" cy="156" r="1.4"/><circle cx="322" cy="142" r="1.2"/><circle cx="364" cy="152" r="1.8"/>
    <circle cx="408" cy="140" r="1.1"/><circle cx="452" cy="158" r="1.5"/><circle cx="497" cy="144" r="1.2"/>
    <circle cx="540" cy="156" r="1.6"/><circle cx="584" cy="142" r="1.1"/><circle cx="626" cy="154" r="1.7"/>

    <circle cx="20" cy="212" r="1.2"/><circle cx="56" cy="194" r="1.7"/><circle cx="96" cy="218" r="1.1"/>
    <circle cx="136" cy="202" r="1.6"/><circle cx="180" cy="224" r="1.2"/><circle cx="222" cy="204" r="1.7"/>
    <circle cx="266" cy="220" r="1.1"/><circle cx="308" cy="198" r="1.5"/><circle cx="352" cy="226" r="1.2"/>
    <circle cx="396" cy="206" r="1.6"/><circle cx="438" cy="220" r="1.1"/><circle cx="480" cy="198" r="1.7"/>
    <circle cx="524" cy="224" r="1.2"/><circle cx="570" cy="206" r="1.5"/><circle cx="618" cy="220" r="1.1"/>

    <rect x="42" y="58" width="2" height="2"/><rect x="86" y="118" width="2" height="2"/>
    <rect x="146" y="60" width="2" height="2"/><rect x="232" y="120" width="2" height="2"/>
    <rect x="318" y="58" width="2" height="2"/><rect x="402" y="122" width="2" height="2"/>
    <rect x="492" y="60" width="2" height="2"/><rect x="578" y="118" width="2" height="2"/>
    <rect x="620" y="64" width="2" height="2"/><rect x="604" y="244" width="2" height="2"/>
    <rect x="538" y="260" width="2" height="2"/><rect x="470" y="244" width="2" height="2"/>
    <rect x="392" y="260" width="2" height="2"/><rect x="312" y="244" width="2" height="2"/>
    <rect x="232" y="260" width="2" height="2"/><rect x="150" y="244" width="2" height="2"/>
  </g>

  <!-- Left accent line -->
  <rect x="50" y="0" width="5" height="300" fill="url(#accentGrad)"/>

  <!-- Subtle right-bottom decoration: shield + filter prompt -->
  <g transform="translate(0,0)" opacity="0.22" fill="none" stroke-linecap="round" stroke-linejoin="round">
    <path d="M545 194 L581 206 L581 233 C581 252 566 264 545 272 C524 264 509 252 509 233 L509 206 Z"
          stroke="#EA580C" stroke-width="2.2" filter="url(#softGlow)"/>
    <path d="M533 224 L557 224" stroke="#D6D3D1" stroke-width="2"/>
    <path d="M545 214 L545 236" stroke="#D6D3D1" stroke-width="2"/>
    <path d="M594 206 H618" stroke="#EA580C" stroke-width="2"/>
    <path d="M594 220 H612" stroke="#EA580C" stroke-width="2"/>
    <path d="M594 234 H616" stroke="#EA580C" stroke-width="2"/>
    <path d="M604 250 l10 -10" stroke="#D6D3D1" stroke-width="2"/>
    <path d="M604 240 l10 10" stroke="#D6D3D1" stroke-width="2"/>
  </g>

  <!-- Title -->
  <text x="70" y="68" fill="#FAFAF9" font-family="Noto Sans SC, Microsoft YaHei, PingFang SC, sans-serif"
        font-size="22" font-weight="700" letter-spacing="0.2">
    <tspan x="70" dy="0">AI Agent 防注入：</tspan>
    <tspan x="70" dy="28">你的「智能助理」</tspan>
    <tspan x="70" dy="28">为什么总被用户带跑偏？</tspan>
  </text>

  <!-- Subtitle -->
  <text x="70" y="169" fill="#A8A29E" font-family="Noto Sans SC, Microsoft YaHei, PingFang SC, sans-serif"
        font-size="13" font-weight="400" letter-spacing="0.1">
    Prompt Injection 不是简单的“不听话”，而是能夺取 AI Agent 控制权的头号威胁。
  </text>

  <!-- Tags -->
  <g font-family="Noto Sans SC, Microsoft YaHei, PingFang SC, sans-serif" font-size="13" font-weight="600">
    <g transform="translate(70,236)">
      <rect x="0" y="0" width="86" height="24" rx="12" fill="#57534E" opacity="0.4"/>
      <text x="43" y="16.5" text-anchor="middle" fill="#D6D3D1">Prompt 注入</text>
    </g>
    <g transform="translate(166,236)">
      <rect x="0" y="0" width="76" height="24" rx="12" fill="#57534E" opacity="0.4"/>
      <text x="38" y="16.5" text-anchor="middle" fill="#D6D3D1">最小权限</text>
    </g>
    <g transform="translate(252,236)">
      <rect x="0" y="0" width="76" height="24" rx="12" fill="#57534E" opacity="0.4"/>
      <text x="38" y="16.5" text-anchor="middle" fill="#D6D3D1">输入沙箱</text>
    </g>
  </g>

  <!-- Bottom strip -->
  <rect x="0" y="293" width="660" height="7" fill="url(#accentGrad)"/>
</svg>