<svg width="660" height="300" viewBox="0 0 660 300" fill="none" xmlns="http://www.w3.org/2000/svg">
  <defs>
    <linearGradient id="bgGrad" x1="0" y1="0" x2="660" y2="300" gradientUnits="userSpaceOnUse">
      <stop offset="0%" stop-color="#44403C"/>
      <stop offset="100%" stop-color="#1C1917"/>
    </linearGradient>
    <linearGradient id="accentGrad" x1="50" y1="0" x2="610" y2="300" gradientUnits="userSpaceOnUse">
      <stop offset="0%" stop-color="#EA580C"/>
      <stop offset="100%" stop-color="#F59E0B"/>
    </linearGradient>
    <pattern id="grain" width="44" height="44" patternUnits="userSpaceOnUse">
      <circle cx="6" cy="8" r="1.1" fill="#D6D3D1" opacity="0.06"/>
      <circle cx="17" cy="13" r="0.9" fill="#D6D3D1" opacity="0.06"/>
      <circle cx="31" cy="7" r="1.2" fill="#D6D3D1" opacity="0.06"/>
      <circle cx="39" cy="18" r="0.8" fill="#D6D3D1" opacity="0.06"/>
      <circle cx="11" cy="26" r="1.3" fill="#D6D3D1" opacity="0.06"/>
      <circle cx="24" cy="22" r="0.7" fill="#D6D3D1" opacity="0.06"/>
      <circle cx="35" cy="31" r="1.1" fill="#D6D3D1" opacity="0.06"/>
      <circle cx="7" cy="39" r="0.9" fill="#D6D3D1" opacity="0.06"/>
      <circle cx="20" cy="37" r="1.2" fill="#D6D3D1" opacity="0.06"/>
      <circle cx="30" cy="42" r="0.8" fill="#D6D3D1" opacity="0.06"/>
    </pattern>
  </defs>

  <rect width="660" height="300" fill="url(#bgGrad)"/>
  <rect width="660" height="300" fill="url(#grain)"/>

  <rect x="50" y="36" width="5" height="198" rx="2.5" fill="url(#accentGrad)"/>

  <text x="70" y="92" fill="#FAFAF9" font-size="22" font-weight="700" font-family="system-ui, -apple-system, 'PingFang SC', 'Microsoft YaHei', sans-serif">
    <tspan x="70" dy="0">AI安全赏金：</tspan>
    <tspan x="70" dy="28">把官方清单变成发版自测</tspan>
  </text>

  <text x="70" y="150" fill="#A8A29E" font-size="13" font-family="system-ui, -apple-system, 'PingFang SC', 'Microsoft YaHei', sans-serif" textLength="500" lengthAdjust="spacingAndGlyphs">
    AI安全赏金不是让你去薅钱，而是一份现成的攻击面清单：提示词注入、工具调用越权、
  </text>

  <g>
    <rect x="70" y="238" width="84" height="24" rx="12" fill="#57534E" fill-opacity="0.4"/>
    <text x="112" y="254" text-anchor="middle" fill="#D6D3D1" font-size="12" font-family="system-ui, -apple-system, 'PingFang SC', 'Microsoft YaHei', sans-serif">提示词注入</text>

    <rect x="164" y="238" width="84" height="24" rx="12" fill="#57534E" fill-opacity="0.4"/>
    <text x="206" y="254" text-anchor="middle" fill="#D6D3D1" font-size="12" font-family="system-ui, -apple-system, 'PingFang SC', 'Microsoft YaHei', sans-serif">工具越权</text>

    <rect x="258" y="238" width="84" height="24" rx="12" fill="#57534E" fill-opacity="0.4"/>
    <text x="300" y="254" text-anchor="middle" fill="#D6D3D1" font-size="12" font-family="system-ui, -apple-system, 'PingFang SC', 'Microsoft YaHei', sans-serif">发版自测</text>
  </g>

  <g opacity="0.22" stroke="#F59E0B" stroke-width="2" stroke-linecap="round" stroke-linejoin="round" fill="none">
    <rect x="512" y="186" width="62" height="78" rx="8"/>
    <path d="M526 202H560"/>
    <path d="M526 216H554"/>
    <path d="M526 230H548"/>
    <path d="M526 246L533 253L548 238"/>
  </g>

  <g opacity="0.18" stroke="#A8A29E" stroke-width="2" stroke-linecap="round" stroke-linejoin="round" fill="none">
    <path d="M594 196L618 206V222C618 236 608 248 594 254C580 248 570 236 570 222V206L594 196Z"/>
    <path d="M584 224L591 231L605 217"/>
  </g>

  <rect x="0" y="293" width="660" height="7" fill="url(#accentGrad)"/>
</svg>