<svg width="660" height="300" viewBox="0 0 660 300" fill="none" xmlns="http://www.w3.org/2000/svg">
  <defs>
    <linearGradient id="bg" x1="0" y1="0" x2="660" y2="300" gradientUnits="userSpaceOnUse">
      <stop offset="0" stop-color="#44403C"/>
      <stop offset="1" stop-color="#1C1917"/>
    </linearGradient>
    <linearGradient id="accent" x1="50" y1="0" x2="50" y2="300" gradientUnits="userSpaceOnUse">
      <stop offset="0" stop-color="#EA580C"/>
      <stop offset="1" stop-color="#F59E0B"/>
    </linearGradient>
    <pattern id="texture" width="36" height="36" patternUnits="userSpaceOnUse">
      <circle cx="6" cy="8" r="1.2" fill="#D6D3D1" opacity="0.06"/>
      <circle cx="18" cy="11" r="0.9" fill="#D6D3D1" opacity="0.06"/>
      <circle cx="29" cy="6" r="1.1" fill="#D6D3D1" opacity="0.06"/>
      <circle cx="10" cy="22" r="0.8" fill="#D6D3D1" opacity="0.06"/>
      <circle cx="23" cy="19" r="1.3" fill="#D6D3D1" opacity="0.06"/>
      <circle cx="31" cy="28" r="0.9" fill="#D6D3D1" opacity="0.06"/>
      <circle cx="7" cy="32" r="1.1" fill="#D6D3D1" opacity="0.06"/>
    </pattern>
  </defs>

  <rect width="660" height="300" fill="url(#bg)"/>
  <rect width="660" height="300" fill="url(#texture)"/>

  <rect x="50" y="28" width="5" height="226" rx="2.5" fill="url(#accent)"/>

  <text x="70" y="88" fill="#FAFAF9" font-size="22" font-weight="700" font-family="system-ui, -apple-system, BlinkMacSystemFont, 'Segoe UI', sans-serif">
    <tspan x="70" dy="0">AI 功能怎么选：别做万能助手</tspan>
    <tspan x="70" dy="28">先做高频动作</tspan>
  </text>

  <text x="70" y="146" fill="#A8A29E" font-size="13" font-weight="400" font-family="system-ui, -apple-system, BlinkMacSystemFont, 'Segoe UI', sans-serif">
    AI 功能怎么选才不会变成摆设？很多 SaaS 把聊天助手塞进首页，上线后却没人
  </text>

  <g>
    <rect x="70" y="236" width="84" height="24" rx="12" fill="#57534E" fill-opacity="0.4"/>
    <text x="112" y="252" text-anchor="middle" fill="#D6D3D1" font-size="12" font-weight="500" font-family="system-ui, -apple-system, BlinkMacSystemFont, 'Segoe UI', sans-serif">高频动作</text>

    <rect x="164" y="236" width="80" height="24" rx="12" fill="#57534E" fill-opacity="0.4"/>
    <text x="204" y="252" text-anchor="middle" fill="#D6D3D1" font-size="12" font-weight="500" font-family="system-ui, -apple-system, BlinkMacSystemFont, 'Segoe UI', sans-serif">功能筛选</text>

    <rect x="254" y="236" width="74" height="24" rx="12" fill="#57534E" fill-opacity="0.4"/>
    <text x="291" y="252" text-anchor="middle" fill="#D6D3D1" font-size="12" font-weight="500" font-family="system-ui, -apple-system, BlinkMacSystemFont, 'Segoe UI', sans-serif">SaaS AI</text>
  </g>

  <g opacity="0.22" stroke="#A8A29E" stroke-width="2" stroke-linecap="round" stroke-linejoin="round" fill="none">
    <rect x="500" y="188" width="58" height="46" rx="8"/>
    <path d="M512 201H544"/>
    <path d="M512 211H538"/>
    <path d="M512 221H531"/>
    <path d="M519 198L514 203L512 201"/>
  </g>

  <g opacity="0.2" stroke="#EA580C" stroke-width="2.2" stroke-linecap="round" stroke-linejoin="round" fill="none">
    <path d="M584 205C596 198 610 198 620 206C628 212 630 224 624 233C618 242 606 245 595 241"/>
    <path d="M602 196L604 203L611 201"/>
    <path d="M586 230L594 238L608 223"/>
  </g>

  <rect x="0" y="293" width="660" height="7" fill="url(#accent)"/>
</svg>