<svg width="660" height="300" viewBox="0 0 660 300" fill="none" xmlns="http://www.w3.org/2000/svg">
  <defs>
    <linearGradient id="bg" x1="0" y1="0" x2="660" y2="300" gradientUnits="userSpaceOnUse">
      <stop offset="0" stop-color="#44403C"/>
      <stop offset="1" stop-color="#1C1917"/>
    </linearGradient>
    <linearGradient id="accent" x1="50" y1="0" x2="660" y2="300" gradientUnits="userSpaceOnUse">
      <stop offset="0" stop-color="#EA580C"/>
      <stop offset="1" stop-color="#F59E0B"/>
    </linearGradient>
  </defs>

  <rect width="660" height="300" fill="url(#bg)"/>

  <g fill="#D6D3D1" opacity="0.06">
    <circle cx="34" cy="28" r="1.2"/><circle cx="88" cy="44" r="1"/><circle cx="126" cy="22" r="1.4"/>
    <circle cx="172" cy="36" r="1.1"/><circle cx="214" cy="26" r="0.9"/><circle cx="266" cy="48" r="1.3"/>
    <circle cx="314" cy="30" r="1"/><circle cx="358" cy="20" r="1.5"/><circle cx="402" cy="42" r="1.1"/>
    <circle cx="444" cy="24" r="1"/><circle cx="502" cy="34" r="1.2"/><circle cx="548" cy="18" r="0.9"/>
    <circle cx="602" cy="40" r="1.4"/><circle cx="632" cy="26" r="1.1"/>

    <circle cx="48" cy="86" r="1"/><circle cx="96" cy="72" r="1.5"/><circle cx="138" cy="92" r="1.1"/>
    <circle cx="190" cy="78" r="1.3"/><circle cx="236" cy="96" r="0.9"/><circle cx="288" cy="84" r="1.2"/>
    <circle cx="330" cy="70" r="1"/><circle cx="382" cy="88" r="1.4"/><circle cx="424" cy="76" r="1.1"/>
    <circle cx="470" cy="90" r="1"/><circle cx="520" cy="72" r="1.3"/><circle cx="566" cy="94" r="1"/>
    <circle cx="612" cy="80" r="1.5"/>

    <circle cx="26" cy="132" r="1.2"/><circle cx="74" cy="120" r="1"/><circle cx="118" cy="146" r="1.4"/>
    <circle cx="162" cy="128" r="1.1"/><circle cx="208" cy="140" r="0.9"/><circle cx="254" cy="122" r="1.3"/>
    <circle cx="304" cy="148" r="1"/><circle cx="350" cy="130" r="1.5"/><circle cx="398" cy="144" r="1.1"/>
    <circle cx="442" cy="124" r="1"/><circle cx="490" cy="138" r="1.2"/><circle cx="540" cy="126" r="0.9"/>
    <circle cx="590" cy="146" r="1.4"/><circle cx="628" cy="132" r="1.1"/>

    <circle cx="40" cy="186" r="1"/><circle cx="92" cy="170" r="1.5"/><circle cx="136" cy="192" r="1.1"/>
    <circle cx="182" cy="178" r="1.3"/><circle cx="228" cy="196" r="0.9"/><circle cx="276" cy="182" r="1.2"/>
    <circle cx="322" cy="168" r="1"/><circle cx="368" cy="190" r="1.4"/><circle cx="414" cy="176" r="1.1"/>
    <circle cx="458" cy="194" r="1"/><circle cx="506" cy="172" r="1.3"/><circle cx="552" cy="188" r="1"/>
    <circle cx="604" cy="174" r="1.5"/>

    <circle cx="30" cy="238" r="1.2"/><circle cx="82" cy="224" r="1"/><circle cx="124" cy="248" r="1.4"/>
    <circle cx="170" cy="232" r="1.1"/><circle cx="216" cy="246" r="0.9"/><circle cx="262" cy="228" r="1.3"/>
    <circle cx="308" cy="252" r="1"/><circle cx="356" cy="236" r="1.5"/><circle cx="404" cy="246" r="1.1"/>
    <circle cx="448" cy="230" r="1"/><circle cx="496" cy="244" r="1.2"/><circle cx="544" cy="226" r="0.9"/>
    <circle cx="594" cy="250" r="1.4"/><circle cx="634" cy="234" r="1.1"/>
  </g>

  <rect x="50" y="24" width="5" height="242" rx="2.5" fill="url(#accent)"/>

  <text x="70" y="92" fill="#FAFAF9" font-size="22" font-weight="700" font-family="system-ui, -apple-system, BlinkMacSystemFont, 'Segoe UI', sans-serif">
    <tspan x="70" dy="0">AI问答上线前，</tspan>
    <tspan x="70" dy="28">先补这张风险清单</tspan>
  </text>

  <text x="70" y="136" fill="#A8A29E" font-size="13" font-family="system-ui, -apple-system, BlinkMacSystemFont, 'Segoe UI', sans-serif" textLength="530" lengthAdjust="spacingAndGlyphs">
    AI问答上线前，真正决定你会不会翻车的，往往不是提示词，而是边界清不清。尤其是健
  </text>

  <g>
    <rect x="70" y="238" width="84" height="24" rx="12" fill="#57534E" fill-opacity="0.4"/>
    <text x="112" y="254" text-anchor="middle" fill="#D6D3D1" font-size="12" font-family="system-ui, -apple-system, BlinkMacSystemFont, 'Segoe UI', sans-serif">风险边界</text>

    <rect x="164" y="238" width="78" height="24" rx="12" fill="#57534E" fill-opacity="0.4"/>
    <text x="203" y="254" text-anchor="middle" fill="#D6D3D1" font-size="12" font-family="system-ui, -apple-system, BlinkMacSystemFont, 'Segoe UI', sans-serif">健康问答</text>

    <rect x="252" y="238" width="78" height="24" rx="12" fill="#57534E" fill-opacity="0.4"/>
    <text x="291" y="254" text-anchor="middle" fill="#D6D3D1" font-size="12" font-family="system-ui, -apple-system, BlinkMacSystemFont, 'Segoe UI', sans-serif">转人工</text>
  </g>

  <g opacity="0.24" stroke="#EA580C" stroke-width="2.2" stroke-linecap="round" stroke-linejoin="round" fill="none">
    <path d="M530 191L558 201V220C558 233 547 242 530 247C513 242 502 233 502 220V201L530 191Z"/>
    <path d="M520 219L527 226L541 211"/>
  </g>

  <g opacity="0.18" stroke="#A8A29E" stroke-width="2" stroke-linecap="round" stroke-linejoin="round" fill="none">
    <rect x="575" y="204" width="42" height="54" rx="6"/>
    <path d="M585 218H607"/>
    <path d="M585 230H607"/>
    <path d="M585 242H600"/>
    <path d="M585 216L588 219L594 212"/>
  </g>

  <rect x="0" y="293" width="660" height="7" fill="url(#accent)"/>
</svg>