<svg width="660" height="300" viewBox="0 0 660 300" fill="none" xmlns="http://www.w3.org/2000/svg">
  <defs>
    <linearGradient id="bgGrad" x1="0" y1="0" x2="660" y2="300" gradientUnits="userSpaceOnUse">
      <stop offset="0" stop-color="#44403C"/>
      <stop offset="1" stop-color="#1C1917"/>
    </linearGradient>
    <linearGradient id="accentGrad" x1="50" y1="0" x2="610" y2="300" gradientUnits="userSpaceOnUse">
      <stop offset="0" stop-color="#EA580C"/>
      <stop offset="1" stop-color="#F59E0B"/>
    </linearGradient>
  </defs>

  <rect width="660" height="300" fill="url(#bgGrad)"/>

  <g opacity="0.06" fill="#D6D3D1">
    <circle cx="28" cy="34" r="1.2"/><circle cx="64" cy="52" r="0.9"/><circle cx="91" cy="28" r="1.1"/>
    <circle cx="132" cy="46" r="0.8"/><circle cx="168" cy="22" r="1.3"/><circle cx="201" cy="61" r="0.9"/>
    <circle cx="236" cy="37" r="1.1"/><circle cx="277" cy="24" r="0.8"/><circle cx="315" cy="49" r="1.2"/>
    <circle cx="352" cy="31" r="0.9"/><circle cx="389" cy="57" r="1.1"/><circle cx="428" cy="26" r="0.8"/>
    <circle cx="463" cy="43" r="1.2"/><circle cx="504" cy="19" r="1.1"/><circle cx="539" cy="54" r="0.8"/>
    <circle cx="578" cy="29" r="1.2"/><circle cx="612" cy="47" r="0.9"/><circle cx="638" cy="24" r="1.1"/>

    <circle cx="35" cy="88" r="0.8"/><circle cx="72" cy="104" r="1.1"/><circle cx="108" cy="82" r="0.9"/>
    <circle cx="149" cy="98" r="1.2"/><circle cx="184" cy="75" r="0.8"/><circle cx="223" cy="109" r="1.1"/>
    <circle cx="261" cy="86" r="0.9"/><circle cx="297" cy="101" r="1.2"/><circle cx="334" cy="79" r="0.8"/>
    <circle cx="371" cy="96" r="1.1"/><circle cx="409" cy="83" r="0.9"/><circle cx="445" cy="107" r="1.2"/>
    <circle cx="482" cy="88" r="0.8"/><circle cx="521" cy="102" r="1.1"/><circle cx="559" cy="80" r="0.9"/>
    <circle cx="596" cy="95" r="1.2"/><circle cx="631" cy="84" r="0.8"/>

    <circle cx="22" cy="141" r="1.1"/><circle cx="58" cy="157" r="0.9"/><circle cx="93" cy="132" r="1.2"/>
    <circle cx="131" cy="148" r="0.8"/><circle cx="169" cy="137" r="1.1"/><circle cx="206" cy="159" r="0.9"/>
    <circle cx="244" cy="129" r="1.2"/><circle cx="282" cy="152" r="0.8"/><circle cx="319" cy="138" r="1.1"/>
    <circle cx="356" cy="156" r="0.9"/><circle cx="394" cy="134" r="1.2"/><circle cx="431" cy="149" r="0.8"/>
    <circle cx="468" cy="136" r="1.1"/><circle cx="506" cy="158" r="0.9"/><circle cx="543" cy="133" r="1.2"/>
    <circle cx="581" cy="151" r="0.8"/><circle cx="618" cy="139" r="1.1"/>

    <circle cx="31" cy="195" r="0.9"/><circle cx="66" cy="212" r="1.2"/><circle cx="102" cy="184" r="0.8"/>
    <circle cx="141" cy="206" r="1.1"/><circle cx="179" cy="191" r="0.9"/><circle cx="215" cy="214" r="1.2"/>
    <circle cx="254" cy="186" r="0.8"/><circle cx="291" cy="203" r="1.1"/><circle cx="328" cy="189" r="0.9"/>
    <circle cx="365" cy="211" r="1.2"/><circle cx="403" cy="183" r="0.8"/><circle cx="441" cy="205" r="1.1"/>
    <circle cx="477" cy="192" r="0.9"/><circle cx="514" cy="216" r="1.2"/><circle cx="553" cy="187" r="0.8"/>
    <circle cx="590" cy="208" r="1.1"/><circle cx="627" cy="194" r="0.9"/>

    <circle cx="24" cy="249" r="1.2"/><circle cx="61" cy="268" r="0.8"/><circle cx="98" cy="241" r="1.1"/>
    <circle cx="135" cy="259" r="0.9"/><circle cx="172" cy="246" r="1.2"/><circle cx="209" cy="271" r="0.8"/>
    <circle cx="247" cy="238" r="1.1"/><circle cx="284" cy="263" r="0.9"/><circle cx="321" cy="247" r="1.2"/>
    <circle cx="358" cy="269" r="0.8"/><circle cx="396" cy="242" r="1.1"/><circle cx="433" cy="258" r="0.9"/>
    <circle cx="471" cy="245" r="1.2"/><circle cx="508" cy="267" r="0.8"/><circle cx="545" cy="239" r="1.1"/>
    <circle cx="583" cy="261" r="0.9"/><circle cx="621" cy="248" r="1.2"/>
  </g>

  <rect x="50" y="26" width="5" height="236" rx="2.5" fill="url(#accentGrad)"/>

  <text x="70" y="74" fill="#FAFAF9" font-size="22" font-weight="700" font-family="system-ui, -apple-system, 'Segoe UI', sans-serif">
    <tspan x="70" dy="0">AI 工作流落地：</tspan>
    <tspan x="70" dy="28">先做这 3 件小事</tspan>
  </text>

  <text x="70" y="140" fill="#A8A29E" font-size="13" font-weight="400" font-family="system-ui, -apple-system, 'Segoe UI', sans-serif">
    AI 工作流不是多买 AI 账号，而是把邮件、纪要、翻译做成可复用资产
  </text>

  <g>
    <rect x="70" y="238" width="82" height="24" rx="12" fill="#57534E" fill-opacity="0.4"/>
    <text x="111" y="254" text-anchor="middle" fill="#D6D3D1" font-size="12" font-family="system-ui, -apple-system, 'Segoe UI', sans-serif">邮件初稿</text>

    <rect x="162" y="238" width="82" height="24" rx="12" fill="#57534E" fill-opacity="0.4"/>
    <text x="203" y="254" text-anchor="middle" fill="#D6D3D1" font-size="12" font-family="system-ui, -apple-system, 'Segoe UI', sans-serif">会议纪要</text>

    <rect x="254" y="238" width="82" height="24" rx="12" fill="#57534E" fill-opacity="0.4"/>
    <text x="295" y="254" text-anchor="middle" fill="#D6D3D1" font-size="12" font-family="system-ui, -apple-system, 'Segoe UI', sans-serif">双语翻译</text>
  </g>

  <g opacity="0.24" stroke="#EA580C" stroke-width="2" stroke-linecap="round" stroke-linejoin="round" fill="none">
    <rect x="506" y="188" width="56" height="72" rx="8"/>
    <path d="M520 206H548"/>
    <path d="M520 220H548"/>
    <path d="M520 234H540"/>
    <path d="M516 206L518 208L522 203"/>
    <path d="M516 220L518 222L522 217"/>
    <path d="M516 234L518 236L522 231"/>
  </g>

  <g opacity="0.18" stroke="#A8A29E" stroke-width="2" stroke-linecap="round" stroke-linejoin="round" fill="none">
    <path d="M584 214C596 206 611 208 619 217C627 226 626 241 616 249C605 258 589 256 579 247"/>
    <path d="M576 231L579 247L594 244"/>
    <path d="M583 202L590 195"/>
    <path d="M618 257L625 264"/>
  </g>

  <rect x="0" y="293" width="660" height="7" fill="url(#accentGrad)"/>
</svg>