<svg xmlns="http://www.w3.org/2000/svg" viewBox="0 0 660 300">
  <defs>
    <linearGradient id="bgGrad" x1="0%" y1="0%" x2="0%" y2="100%">
      <stop offset="0%" style="stop-color:#44403C"/>
      <stop offset="100%" style="stop-color:#1C1917"/>
    </linearGradient>
    <linearGradient id="accentGrad" x1="0%" y1="0%" x2="100%" y2="0%">
      <stop offset="0%" style="stop-color:#EA580C"/>
      <stop offset="100%" style="stop-color:#F59E0B"/>
    </linearGradient>
  </defs>
  
  <rect width="660" height="300" fill="url(#bgGrad)"/>
  
  <g opacity="0.06">
    <circle cx="120" cy="45" r="2" fill="#D6D3D1"/>
    <circle cx="280" cy="90" r="1.5" fill="#D6D3D1"/>
    <circle cx="450" cy="120" r="2" fill="#D6D3D1"/>
    <circle cx="180" cy="180" r="1.5" fill="#D6D3D1"/>
    <circle cx="380" cy="210" r="2" fill="#D6D3D1"/>
    <circle cx="520" cy="160" r="1.5" fill="#D6D3D1"/>
    <circle cx="90" cy="240" r="2" fill="#D6D3D1"/>
    <circle cx="340" cy="270" r="1.5" fill="#D6D3D1"/>
  </g>
  
  <rect x="50" y="0" width="5" height="300" fill="url(#accentGrad)"/>
  
  <text x="70" y="80" font-family="system-ui, -apple-system, sans-serif" font-size="22" font-weight="bold" fill="#FAFAF9">
    <tspan x="70" dy="0">OpenClaw 终极指南：从聊天</tspan>
    <tspan x="70" dy="28">机器人到赛博作战室</tspan>
  </text>
  
  <text x="70" y="155" font-family="system-ui, -apple-system, sans-serif" font-size="13" fill="#A8A29E">
    你是不是还在用 WhatsApp 跟 AI 聊天？今天我们要来一场降维打击
  </text>
  
  <g transform="translate(70, 245)">
    <rect width="85" height="24" rx="12" fill="#57534E" opacity="0.4"/>
    <text x="42.5" y="16" font-family="system-ui, -apple-system, sans-serif" font-size="11" fill="#D6D3D1" text-anchor="middle">Discord</text>
  </g>
  
  <g transform="translate(165, 245)">
    <rect width="75" height="24" rx="12" fill="#57534E" opacity="0.4"/>
    <text x="37.5" y="16" font-family="system-ui, -apple-system, sans-serif" font-size="11" fill="#D6D3D1" text-anchor="middle">AI 协作</text>
  </g>
  
  <g transform="translate(250, 245)">
    <rect width="90" height="24" rx="12" fill="#57534E" opacity="0.4"/>
    <text x="45" y="16" font-family="system-ui, -apple-system, sans-serif" font-size="11" fill="#D6D3D1" text-anchor="middle">上手指南</text>
  </g>
  
  <g transform="translate(520, 200)" opacity="0.2">
    <path d="M 0 20 L 20 0 L 40 20 L 20 40 Z" fill="none" stroke="#EA580C" stroke-width="2"/>
    <circle cx="20" cy="20" r="6" fill="#EA580C"/>
  </g>
  
  <g transform="translate(570, 220)" opacity="0.25">
    <rect width="30" height="30" rx="4" fill="none" stroke="#A8A29E" stroke-width="2"/>
    <line x1="8" y1="15" x2="22" y2="15" stroke="#A8A29E" stroke-width="2"/>
    <line x1="15" y1="8" x2="15" y2="22" stroke="#A8A29E" stroke-width="2"/>
  </g>
  
  <rect x="0" y="293" width="660" height="7" fill="url(#accentGrad)"/>
</svg>