<svg xmlns="http://www.w3.org/2000/svg" viewBox="0 0 660 300">
  <defs>
    <linearGradient id="bgGrad" x1="0%" y1="0%" x2="0%" y2="100%">
      <stop offset="0%" style="stop-color:#44403C"/>
      <stop offset="100%" style="stop-color:#1C1917"/>
    </linearGradient>
    <linearGradient id="accentGrad" x1="0%" y1="0%" x2="100%" y2="0%">
      <stop offset="0%" style="stop-color:#EA580C"/>
      <stop offset="100%" style="stop-color:#F59E0B"/>
    </linearGradient>
  </defs>
  
  <rect width="660" height="300" fill="url(#bgGrad)"/>
  
  <g opacity="0.06">
    <circle cx="120" cy="45" r="1.5" fill="#D6D3D1"/>
    <circle cx="280" cy="90" r="1.2" fill="#D6D3D1"/>
    <circle cx="450" cy="120" r="1.8" fill="#D6D3D1"/>
    <circle cx="180" cy="180" r="1.3" fill="#D6D3D1"/>
    <circle cx="520" cy="200" r="1.6" fill="#D6D3D1"/>
    <circle cx="90" cy="240" r="1.4" fill="#D6D3D1"/>
    <circle cx="350" cy="260" r="1.7" fill="#D6D3D1"/>
    <circle cx="580" cy="80" r="1.5" fill="#D6D3D1"/>
    <circle cx="220" cy="140" r="1.2" fill="#D6D3D1"/>
    <circle cx="420" cy="220" r="1.4" fill="#D6D3D1"/>
  </g>
  
  <rect x="50" y="60" width="5" height="50" fill="url(#accentGrad)" rx="2.5"/>
  
  <text x="70" y="85" font-family="Arial, sans-serif" font-size="26" font-weight="bold" fill="#FAFAF9">
    OpenClaw 终极指南：从聊天机器人
  </text>
  <text x="70" y="110" font-family="Arial, sans-serif" font-size="26" font-weight="bold" fill="#FAFAF9">
    到赛博作战室
  </text>
  
  <text x="70" y="140" font-family="Arial, sans-serif" font-size="16" fill="#A8A29E">
    你是不是还在用 WhatsApp 跟 AI 聊天？
  </text>
  <text x="70" y="162" font-family="Arial, sans-serif" font-size="16" fill="#A8A29E">
    今天我们要来一场降维打击
  </text>
  
  <g transform="translate(70, 190)">
    <rect width="90" height="28" rx="14" fill="#57534E" opacity="0.4"/>
    <text x="45" y="19" font-family="Arial, sans-serif" font-size="13" fill="#D6D3D1" text-anchor="middle">Discord</text>
  </g>
  
  <g transform="translate(170, 190)">
    <rect width="110" height="28" rx="14" fill="#57534E" opacity="0.4"/>
    <text x="55" y="19" font-family="Arial, sans-serif" font-size="13" fill="#D6D3D1" text-anchor="middle">人机协作</text>
  </g>
  
  <g transform="translate(290, 190)">
    <rect width="90" height="28" rx="14" fill="#57534E" opacity="0.4"/>
    <text x="45" y="19" font-family="Arial, sans-serif" font-size="13" fill="#D6D3D1" text-anchor="middle">职场提效</text>
  </g>
  
  <g transform="translate(420, 60)">
    <rect x="0" y="0" width="200" height="160" rx="8" fill="none" stroke="#A8A29E" stroke-width="2" stroke-dasharray="4,4"/>
    
    <rect x="20" y="20" width="160" height="30" rx="4" fill="#57534E" stroke="#EA580C" stroke-width="2"/>
    <text x="100" y="40" font-family="monospace" font-size="12" fill="#22C55E" text-anchor="middle"># coding</text>
    
    <rect x="20" y="60" width="160" height="30" rx="4" fill="#57534E" stroke="#F59E0B" stroke-width="2"/>
    <text x="100" y="80" font-family="monospace" font-size="12" fill="#22C55E" text-anchor="middle"># ideas</text>
    
    <rect x="20" y="100" width="160" height="30" rx="4" fill="#57534E" stroke="#EF4444" stroke-width="2"/>
    <text x="100" y="120" font-family="monospace" font-size="12" fill="#EF4444" text-anchor="middle"># alerts</text>
    
    <circle cx="30" cy="35" r="4" fill="#22C55E"/>
    <circle cx="30" cy="75" r="4" fill="#F59E0B"/>
    <circle cx="30" cy="115" r="4" fill="#EF4444"/>
    
    <path d="M 180 35 L 195 35 M 180 75 L 195 75 M 180 115 L 195 115" stroke="#A8A29E" stroke-width="1.5"/>
  </g>
  
  <rect x="0" y="293" width="660" height="7" fill="url(#accentGrad)"/>
</svg>