<svg xmlns="http://www.w3.org/2000/svg" viewBox="0 0 660 300">
  <defs>
    <linearGradient id="bgGrad" x1="0%" y1="0%" x2="0%" y2="100%">
      <stop offset="0%" style="stop-color:#44403C"/>
      <stop offset="100%" style="stop-color:#1C1917"/>
    </linearGradient>
    <linearGradient id="accentGrad" x1="0%" y1="0%" x2="100%" y2="0%">
      <stop offset="0%" style="stop-color:#EA580C"/>
      <stop offset="100%" style="stop-color:#F59E0B"/>
    </linearGradient>
  </defs>
  
  <rect width="660" height="300" fill="url(#bgGrad)"/>
  
  <circle cx="120" cy="80" r="1.5" fill="#D6D3D1" opacity="0.06"/>
  <circle cx="280" cy="140" r="1.5" fill="#D6D3D1" opacity="0.06"/>
  <circle cx="180" cy="200" r="1.5" fill="#D6D3D1" opacity="0.06"/>
  <circle cx="320" cy="90" r="1.5" fill="#D6D3D1" opacity="0.06"/>
  <circle cx="150" cy="250" r="1.5" fill="#D6D3D1" opacity="0.06"/>
  <circle cx="240" cy="170" r="1.5" fill="#D6D3D1" opacity="0.06"/>
  <circle cx="90" cy="120" r="1.5" fill="#D6D3D1" opacity="0.06"/>
  <circle cx="350" cy="220" r="1.5" fill="#D6D3D1" opacity="0.06"/>
  
  <rect x="50" y="50" width="5" height="180" fill="url(#accentGrad)"/>
  
  <text x="70" y="75" font-family="Arial, sans-serif" font-size="22" font-weight="bold" fill="#FAFAF9">
    OpenClaw 终极指南：
  </text>
  <text x="70" y="102" font-family="Arial, sans-serif" font-size="22" font-weight="bold" fill="#FAFAF9">
    从聊天机器人到
  </text>
  <text x="70" y="129" font-family="Arial, sans-serif" font-size="22" font-weight="bold" fill="#FAFAF9">
    赛博作战室
  </text>
  
  <text x="70" y="155" font-family="Arial, sans-serif" font-size="14" fill="#A8A29E">
    你是不是还在用 WhatsApp 跟 AI 聊天？
  </text>
  
  <rect x="70" y="175" width="85" height="24" rx="12" fill="#57534E" opacity="0.4"/>
  <text x="82" y="192" font-family="Arial, sans-serif" font-size="13" fill="#D6D3D1">Discord</text>
  
  <rect x="165" y="175" width="90" height="24" rx="12" fill="#57534E" opacity="0.4"/>
  <text x="177" y="192" font-family="Arial, sans-serif" font-size="13" fill="#D6D3D1">赛博作战</text>
  
  <rect x="265" y="175" width="75" height="24" rx="12" fill="#57534E" opacity="0.4"/>
  <text x="277" y="192" font-family="Arial, sans-serif" font-size="13" fill="#D6D3D1">AI协作</text>
  
  <g transform="translate(430, 50)">
    <rect x="10" y="10" width="180" height="140" rx="8" fill="none" stroke="#A8A29E" stroke-width="2"/>
    
    <rect x="25" y="25" width="50" height="35" rx="4" fill="#57534E" opacity="0.6"/>
    <text x="35" y="47" font-family="monospace" font-size="11" fill="#22C55E">#code</text>
    
    <rect x="85" y="25" width="50" height="35" rx="4" fill="#57534E" opacity="0.6"/>
    <text x="93" y="47" font-family="monospace" font-size="11" fill="#F59E0B">#ideas</text>
    
    <rect x="145" y="25" width="30" height="35" rx="4" fill="#57534E" opacity="0.6"/>
    <text x="150" y="47" font-family="monospace" font-size="11" fill="#EF4444">⚠</text>
    
    <line x1="25" y1="75" x2="175" y2="75" stroke="#EA580C" stroke-width="2"/>
    <line x1="25" y1="85" x2="140" y2="85" stroke="#A8A29E" stroke-width="1.5"/>
    <line x1="25" y1="95" x2="160" y2="95" stroke="#A8A29E" stroke-width="1.5"/>
    
    <circle cx="35" cy="115" r="8" fill="#22C55E" opacity="0.7"/>
    <circle cx="55" cy="115" r="8" fill="#22C55E" opacity="0.7"/>
    <circle cx="75" cy="115" r="8" fill="#F59E0B" opacity="0.7"/>
    
    <path d="M 120 105 L 140 115 L 120 125 Z" fill="#EA580C" opacity="0.8"/>
    <line x1="140" y1="115" x2="165" y2="115" stroke="#EA580C" stroke-width="2"/>
  </g>
  
  <rect x="0" y="293" width="660" height="7" fill="url(#accentGrad)"/>
</svg>