<svg xmlns="http://www.w3.org/2000/svg" viewBox="0 0 660 300">
  <defs>
    <linearGradient id="bgGrad" x1="0%" y1="0%" x2="0%" y2="100%">
      <stop offset="0%" style="stop-color:#44403C"/>
      <stop offset="100%" style="stop-color:#1C1917"/>
    </linearGradient>
    <linearGradient id="accentGrad" x1="0%" y1="0%" x2="100%" y2="0%">
      <stop offset="0%" style="stop-color:#EA580C"/>
      <stop offset="100%" style="stop-color:#F59E0B"/>
    </linearGradient>
  </defs>
  
  <rect width="660" height="300" fill="url(#bgGrad)"/>
  
  <g opacity="0.06">
    <circle cx="120" cy="45" r="1.5" fill="#D6D3D1"/>
    <circle cx="280" cy="90" r="1" fill="#D6D3D1"/>
    <circle cx="450" cy="120" r="1.2" fill="#D6D3D1"/>
    <circle cx="180" cy="180" r="0.8" fill="#D6D3D1"/>
    <circle cx="520" cy="200" r="1.3" fill="#D6D3D1"/>
    <circle cx="90" cy="240" r="1" fill="#D6D3D1"/>
    <circle cx="350" cy="260" r="1.1" fill="#D6D3D1"/>
    <circle cx="600" cy="80" r="0.9" fill="#D6D3D1"/>
    <circle cx="220" cy="140" r="1.4" fill="#D6D3D1"/>
    <circle cx="480" cy="40" r="1" fill="#D6D3D1"/>
  </g>
  
  <rect x="50" y="60" width="5" height="60" fill="url(#accentGrad)" rx="2.5"/>
  
  <text x="70" y="85" font-family="Arial, sans-serif" font-size="26" font-weight="bold" fill="#FAFAF9">
    OpenClaw 终极指南：从聊天机器人
  </text>
  <text x="70" y="110" font-family="Arial, sans-serif" font-size="26" font-weight="bold" fill="#FAFAF9">
    到赛博作战室
  </text>
  
  <text x="70" y="140" font-family="Arial, sans-serif" font-size="16" fill="#A8A29E">
    你是不是还在用 WhatsApp 跟 AI 聊天？
  </text>
  <text x="70" y="162" font-family="Arial, sans-serif" font-size="16" fill="#A8A29E">
    今天我们要来一场降维打击
  </text>
  
  <g transform="translate(70, 190)">
    <rect width="90" height="28" rx="14" fill="#57534E" opacity="0.4"/>
    <text x="45" y="19" font-family="Arial, sans-serif" font-size="13" fill="#D6D3D1" text-anchor="middle">Discord</text>
  </g>
  
  <g transform="translate(170, 190)">
    <rect width="110" height="28" rx="14" fill="#57534E" opacity="0.4"/>
    <text x="55" y="19" font-family="Arial, sans-serif" font-size="13" fill="#D6D3D1" text-anchor="middle">赛博作战室</text>
  </g>
  
  <g transform="translate(290, 190)">
    <rect width="80" height="28" rx="14" fill="#57534E" opacity="0.4"/>
    <text x="40" y="19" font-family="Arial, sans-serif" font-size="13" fill="#D6D3D1" text-anchor="middle">AI协作</text>
  </g>
  
  <g transform="translate(420, 60)">
    <rect x="0" y="0" width="200" height="160" rx="8" fill="none" stroke="#EA580C" stroke-width="2.5"/>
    
    <rect x="15" y="15" width="170" height="30" rx="4" fill="#57534E" opacity="0.3"/>
    <text x="25" y="35" font-family="monospace" font-size="13" fill="#22C55E"># coding</text>
    
    <rect x="15" y="55" width="170" height="30" rx="4" fill="#57534E" opacity="0.3"/>
    <text x="25" y="75" font-family="monospace" font-size="13" fill="#F59E0B"># ideas</text>
    
    <rect x="15" y="95" width="170" height="30" rx="4" fill="#57534E" opacity="0.3"/>
    <text x="25" y="115" font-family="monospace" font-size="13" fill="#EF4444"># alerts</text>
    
    <circle cx="30" cy="145" r="3" fill="#22C55E"/>
    <circle cx="45" cy="145" r="3" fill="#F59E0B"/>
    <circle cx="60" cy="145" r="3" fill="#EF4444"/>
    
    <path d="M 140 135 L 160 135 L 150 145 Z" fill="#EA580C"/>
    <line x1="150" y1="145" x2="150" y2="155" stroke="#EA580C" stroke-width="2"/>
    <circle cx="150" cy="155" r="2" fill="#EA580C"/>
  </g>
  
  <rect x="0" y="293" width="660" height="7" fill="url(#accentGrad)"/>
</svg>