<svg xmlns="http://www.w3.org/2000/svg" viewBox="0 0 660 300">
  <defs>
    <linearGradient id="bgGrad" x1="0%" y1="0%" x2="0%" y2="100%">
      <stop offset="0%" style="stop-color:#78350F"/>
      <stop offset="100%" style="stop-color:#451A03"/>
    </linearGradient>
    <linearGradient id="accentGrad" x1="0%" y1="0%" x2="100%" y2="0%">
      <stop offset="0%" style="stop-color:#F59E0B"/>
      <stop offset="100%" style="stop-color:#D97706"/>
    </linearGradient>
  </defs>
  
  <rect width="660" height="300" fill="url(#bgGrad)"/>
  
  <g opacity="0.06">
    <circle cx="80" cy="40" r="1.5" fill="#D6A456"/>
    <circle cx="150" cy="90" r="1" fill="#D6A456"/>
    <circle cx="220" cy="60" r="1.2" fill="#D6A456"/>
    <circle cx="120" cy="140" r="1.3" fill="#D6A456"/>
    <circle cx="180" cy="180" r="1" fill="#D6A456"/>
    <circle cx="90" cy="220" r="1.4" fill="#D6A456"/>
    <circle cx="250" cy="120" r="1.1" fill="#D6A456"/>
    <circle cx="160" cy="250" r="1.2" fill="#D6A456"/>
    <circle cx="420" cy="80" r="1.3" fill="#D6A456"/>
    <circle cx="480" cy="140" r="1" fill="#D6A456"/>
    <circle cx="540" cy="100" r="1.4" fill="#D6A456"/>
    <circle cx="580" cy="180" r="1.2" fill="#D6A456"/>
    <circle cx="450" cy="220" r="1.1" fill="#D6A456"/>
    <circle cx="520" cy="260" r="1.3" fill="#D6A456"/>
  </g>
  
  <rect x="50" y="50" width="4" height="60" fill="url(#accentGrad)" rx="2"/>
  
  <text x="70" y="75" font-family="Arial, sans-serif" font-size="26" font-weight="bold" fill="#FEFCE8">
    <tspan x="70" dy="0">GitHub 上这个项目一天涨 600+ 星，</tspan>
    <tspan x="70" dy="32">我扒出了 3 个独立开发者能直接抄的赚钱模式</tspan>
  </text>
  
  <text x="70" y="150" font-family="Arial, sans-serif" font-size="16" fill="#D6A456">
    GitHub Trending 榜首的 AI 应用合集，汇总了全网最火的 AI
  </text>
  
  <g transform="translate(70, 180)">
    <rect width="100" height="28" rx="14" fill="#92400E" opacity="0.4"/>
    <text x="50" y="19" font-family="Arial, sans-serif" font-size="14" fill="#FDE68A" text-anchor="middle">AI 工具</text>
  </g>
  
  <g transform="translate(180, 180)">
    <rect width="110" height="28" rx="14" fill="#92400E" opacity="0.4"/>
    <text x="55" y="19" font-family="Arial, sans-serif" font-size="14" fill="#FDE68A" text-anchor="middle">赚钱模式</text>
  </g>
  
  <g transform="translate(300, 180)">
    <rect width="90" height="28" rx="14" fill="#92400E" opacity="0.4"/>
    <text x="45" y="19" font-family="Arial, sans-serif" font-size="14" fill="#FDE68A" text-anchor="middle">开源</text>
  </g>
  
  <g transform="translate(420, 50)">
    <rect x="0" y="0" width="200" height="140" rx="8" fill="none" stroke="#F59E0B" stroke-width="2.5"/>
    
    <circle cx="40" cy="35" r="18" fill="none" stroke="#D97706" stroke-width="2"/>
    <path d="M 40 17 L 40 35 L 52 35" fill="none" stroke="#D97706" stroke-width="2"/>
    
    <text x="70" y="40" font-family="monospace" font-size="11" fill="#FEFCE8">600+ ⭐</text>
    
    <rect x="15" y="65" width="170" height="8" rx="4" fill="#92400E" opacity="0.3"/>
    <rect x="15" y="65" width="140" height="8" rx="4" fill="url(#accentGrad)"/>
    
    <g transform="translate(15, 85)">
      <rect width="50" height="40" rx="4" fill="#92400E" opacity="0.4" stroke="#D97706" stroke-width="1.5"/>
      <text x="25" y="25" font-family="Arial, sans-serif" font-size="10" fill="#FDE68A" text-anchor="middle">AI 助手</text>
    </g>
    
    <g transform="translate(75, 85)">
      <rect width="50" height="40" rx="4" fill="#92400E" opacity="0.4" stroke="#D97706" stroke-width="1.5"/>
      <text x="25" y="25" font-family="Arial, sans-serif" font-size="10" fill="#FDE68A" text-anchor="middle">工作流</text>
    </g>
    
    <g transform="translate(135, 85)">
      <rect width="50" height="40" rx="4" fill="#92400E" opacity="0.4" stroke="#D97706" stroke-width="1.5"/>
      <text x="25" y="25" font-family="Arial, sans-serif" font-size="10" fill="#FDE68A" text-anchor="middle">镜像</text>
    </g>
    
    <path d="M 100 55 L 40 85 M 100 55 L 100 85 M 100 55 L 160 85" stroke="#F59E0B" stroke-width="1.5" opacity="0.6"/>
  </g>
  
  <rect x="0" y="293" width="660" height="7" fill="url(#accentGrad)"/>
</svg>