<svg xmlns="http://www.w3.org/2000/svg" viewBox="0 0 660 300">
  <defs>
    <linearGradient id="bgGrad" x1="0%" y1="0%" x2="0%" y2="100%">
      <stop offset="0%" style="stop-color:#78350F"/>
      <stop offset="100%" style="stop-color:#451A03"/>
    </linearGradient>
    <linearGradient id="accentGrad" x1="0%" y1="0%" x2="0%" y2="100%">
      <stop offset="0%" style="stop-color:#F59E0B"/>
      <stop offset="100%" style="stop-color:#D97706"/>
    </linearGradient>
  </defs>
  
  <rect width="660" height="300" fill="url(#bgGrad)"/>
  
  <circle cx="120" cy="80" r="1.5" fill="#D6A456" opacity="0.06"/>
  <circle cx="280" cy="140" r="1.5" fill="#D6A456" opacity="0.06"/>
  <circle cx="180" cy="200" r="1.5" fill="#D6A456" opacity="0.06"/>
  <circle cx="320" cy="90" r="1.5" fill="#D6A456" opacity="0.06"/>
  <circle cx="150" cy="250" r="1.5" fill="#D6A456" opacity="0.06"/>
  <circle cx="240" cy="170" r="1.5" fill="#D6A456" opacity="0.06"/>
  <circle cx="90" cy="120" r="1.5" fill="#D6A456" opacity="0.06"/>
  <circle cx="350" cy="220" r="1.5" fill="#D6A456" opacity="0.06"/>
  <circle cx="480" cy="100" r="1.5" fill="#D6A456" opacity="0.06"/>
  <circle cx="550" cy="180" r="1.5" fill="#D6A456" opacity="0.06"/>
  <circle cx="500" cy="240" r="1.5" fill="#D6A456" opacity="0.06"/>
  <circle cx="600" cy="130" r="1.5" fill="#D6A456" opacity="0.06"/>
  
  <rect x="50" y="50" width="5" height="180" fill="url(#accentGrad)" rx="2"/>
  
  <text x="70" y="75" font-family="Arial, sans-serif" font-size="22" font-weight="bold" fill="#FEFCE8">
    <tspan x="70" dy="0">GitHub 上这个项目</tspan>
    <tspan x="70" dy="28">一天涨 600+ 星，</tspan>
    <tspan x="70" dy="28">我扒出了 3 个独立</tspan>
    <tspan x="70" dy="28">开发者能直接抄的</tspan>
    <tspan x="70" dy="28">赚钱模式</tspan>
  </text>
  
  <text x="70" y="200" font-family="Arial, sans-serif" font-size="14" fill="#D6A456">
    GitHub Trending 榜首的 AI 应用合集
  </text>
  
  <rect x="70" y="220" width="85" height="24" rx="12" fill="#92400E" opacity="0.4"/>
  <text x="82" y="236" font-family="Arial, sans-serif" font-size="12" fill="#FDE68A">AI 工具</text>
  
  <rect x="165" y="220" width="85" height="24" rx="12" fill="#92400E" opacity="0.4"/>
  <text x="172" y="236" font-family="Arial, sans-serif" font-size="12" fill="#FDE68A">赚钱模式</text>
  
  <rect x="260" y="220" width="90" height="24" rx="12" fill="#92400E" opacity="0.4"/>
  <text x="265" y="236" font-family="Arial, sans-serif" font-size="12" fill="#FDE68A">独立开发</text>
  
  <g transform="translate(430, 50)">
    <rect x="10" y="10" width="180" height="140" rx="8" fill="none" stroke="#F59E0B" stroke-width="2.5"/>
    
    <circle cx="100" cy="35" r="8" fill="#F59E0B"/>
    <text x="100" y="39" font-family="monospace" font-size="10" fill="#451A03" text-anchor="middle" font-weight="bold">★</text>
    
    <path d="M 30 55 L 30 75 L 50 75" fill="none" stroke="#22C55E" stroke-width="2"/>
    <path d="M 50 55 L 50 85 L 70 85" fill="none" stroke="#22C55E" stroke-width="2"/>
    <path d="M 70 55 L 70 95 L 90 95" fill="none" stroke="#22C55E" stroke-width="2"/>
    
    <text x="35" y="52" font-family="monospace" font-size="9" fill="#FEFCE8">600+</text>
    <text x="55" y="62" font-family="monospace" font-size="9" fill="#FEFCE8">Star</text>
    
    <rect x="110" y="60" width="70" height="30" rx="4" fill="#92400E" opacity="0.6"/>
    <text x="145" y="78" font-family="monospace" font-size="10" fill="#FDE68A" text-anchor="middle">GitHub</text>
    
    <circle cx="40" cy="115" r="6" fill="#D97706"/>
    <circle cx="70" cy="115" r="6" fill="#D97706"/>
    <circle cx="100" cy="115" r="6" fill="#D97706"/>
    
    <path d="M 120 110 L 170 110 L 170 130 L 120 130 Z" fill="none" stroke="#F59E0B" stroke-width="2"/>
    <text x="145" y="124" font-family="monospace" font-size="8" fill="#FEFCE8" text-anchor="middle">$$$</text>
  </g>
  
  <rect x="0" y="293" width="660" height="7" fill="url(#accentGrad)"/>
</svg>