<svg xmlns="http://www.w3.org/2000/svg" viewBox="0 0 660 300">
  <defs>
    <linearGradient id="bgGrad" x1="0%" y1="0%" x2="0%" y2="100%">
      <stop offset="0%" style="stop-color:#78350F"/>
      <stop offset="100%" style="stop-color:#451A03"/>
    </linearGradient>
    <linearGradient id="accentGrad" x1="0%" y1="0%" x2="100%" y2="0%">
      <stop offset="0%" style="stop-color:#F59E0B"/>
      <stop offset="100%" style="stop-color:#D97706"/>
    </linearGradient>
  </defs>
  
  <rect width="660" height="300" fill="url(#bgGrad)"/>
  
  <g opacity="0.06">
    <circle cx="120" cy="45" r="2" fill="#D6A456"/>
    <circle cx="280" cy="90" r="1.5" fill="#D6A456"/>
    <circle cx="450" cy="60" r="2" fill="#D6A456"/>
    <circle cx="180" cy="150" r="1.5" fill="#D6A456"/>
    <circle cx="380" cy="180" r="2" fill="#D6A456"/>
    <circle cx="520" cy="120" r="1.5" fill="#D6A456"/>
    <circle cx="90" cy="200" r="2" fill="#D6A456"/>
    <circle cx="340" cy="240" r="1.5" fill="#D6A456"/>
  </g>
  
  <rect x="50" y="0" width="5" height="300" fill="url(#accentGrad)"/>
  
  <text x="70" y="80" font-family="Arial, sans-serif" font-size="22" font-weight="bold" fill="#FEFCE8">
    <tspan x="70" dy="0">GitHub 上这个项目一天涨 600+ 星，</tspan>
    <tspan x="70" dy="28">我扒出了 3 个独立开发者能直接抄</tspan>
    <tspan x="70" dy="28">的赚钱模式</tspan>
  </text>
  
  <text x="70" y="165" font-family="Arial, sans-serif" font-size="13" fill="#D6A456">
    GitHub Trending 榜首的 AI 应用合集，汇总了全网最火的 AI
  </text>
  
  <g transform="translate(70, 245)">
    <rect width="85" height="24" rx="12" fill="#92400E" opacity="0.4"/>
    <text x="42.5" y="16" font-family="Arial, sans-serif" font-size="12" fill="#FDE68A" text-anchor="middle">AI 工具</text>
  </g>
  
  <g transform="translate(170, 245)">
    <rect width="90" height="24" rx="12" fill="#92400E" opacity="0.4"/>
    <text x="45" y="16" font-family="Arial, sans-serif" font-size="12" fill="#FDE68A" text-anchor="middle">开源项目</text>
  </g>
  
  <g transform="translate(275, 245)">
    <rect width="85" height="24" rx="12" fill="#92400E" opacity="0.4"/>
    <text x="42.5" y="16" font-family="Arial, sans-serif" font-size="12" fill="#FDE68A" text-anchor="middle">赚钱模式</text>
  </g>
  
  <g transform="translate(540, 210)" opacity="0.2">
    <path d="M0,0 L20,0 L20,20 L0,20 Z M5,5 L15,5 M5,10 L15,10 M5,15 L15,15" stroke="#F59E0B" stroke-width="2" fill="none"/>
    <circle cx="30" cy="10" r="8" stroke="#D97706" stroke-width="2" fill="none"/>
  </g>
  
  <g transform="translate(500, 240)" opacity="0.25">
    <path d="M10,0 L20,10 L10,20 L0,10 Z" stroke="#D6A456" stroke-width="1.5" fill="none"/>
  </g>
  
  <rect x="0" y="293" width="660" height="7" fill="url(#accentGrad)"/>
</svg>