<svg xmlns="http://www.w3.org/2000/svg" viewBox="0 0 660 300">
  <defs>
    <linearGradient id="bgGrad" x1="0%" y1="0%" x2="0%" y2="100%">
      <stop offset="0%" style="stop-color:#44403C"/>
      <stop offset="100%" style="stop-color:#1C1917"/>
    </linearGradient>
    <linearGradient id="accentGrad" x1="0%" y1="0%" x2="100%" y2="0%">
      <stop offset="0%" style="stop-color:#EA580C"/>
      <stop offset="100%" style="stop-color:#F59E0B"/>
    </linearGradient>
  </defs>
  
  <rect width="660" height="300" fill="url(#bgGrad)"/>
  
  <g opacity="0.06">
    <circle cx="120" cy="45" r="1.5" fill="#D6D3D1"/>
    <circle cx="280" cy="80" r="1" fill="#D6D3D1"/>
    <circle cx="180" cy="120" r="1.2" fill="#D6D3D1"/>
    <circle cx="90" cy="180" r="1" fill="#D6D3D1"/>
    <circle cx="320" cy="160" r="1.5" fill="#D6D3D1"/>
    <circle cx="220" cy="240" r="1" fill="#D6D3D1"/>
    <circle cx="150" cy="270" r="1.2" fill="#D6D3D1"/>
    <circle cx="480" cy="90" r="1" fill="#D6D3D1"/>
    <circle cx="540" cy="140" r="1.5" fill="#D6D3D1"/>
    <circle cx="590" cy="200" r="1" fill="#D6D3D1"/>
    <circle cx="450" cy="250" r="1.2" fill="#D6D3D1"/>
  </g>
  
  <rect x="50" y="60" width="4" height="50" fill="url(#accentGrad)" rx="2"/>
  
  <text x="70" y="85" font-family="Arial, sans-serif" font-size="26" font-weight="bold" fill="#FAFAF9">
    <tspan x="70" dy="0">Clawbie 锐评竞品：</tspan>
    <tspan x="70" dy="32">为什么你们做的 Agent</tspan>
    <tspan x="70" dy="32">都没有灵魂？</tspan>
  </text>
  
  <text x="70" y="170" font-family="Arial, sans-serif" font-size="16" fill="#A8A29E">
    <tspan x="70" dy="0">别再卷功能列表了。真正的 Agent 不是更强的</tspan>
    <tspan x="70" dy="20">Cursor，而是 24 小时在线的数字合伙人</tspan>
  </text>
  
  <g transform="translate(70, 220)">
    <rect width="90" height="28" rx="14" fill="#57534E" opacity="0.4"/>
    <text x="45" y="19" font-family="Arial, sans-serif" font-size="13" fill="#D6D3D1" text-anchor="middle">Agent</text>
  </g>
  
  <g transform="translate(170, 220)">
    <rect width="80" height="28" rx="14" fill="#57534E" opacity="0.4"/>
    <text x="40" y="19" font-family="Arial, sans-serif" font-size="13" fill="#D6D3D1" text-anchor="middle">灵魂</text>
  </g>
  
  <g transform="translate(260, 220)">
    <rect width="90" height="28" rx="14" fill="#57534E" opacity="0.4"/>
    <text x="45" y="19" font-family="Arial, sans-serif" font-size="13" fill="#D6D3D1" text-anchor="middle">24/7</text>
  </g>
  
  <g transform="translate(420, 60)">
    <rect x="0" y="0" width="200" height="140" rx="8" fill="none" stroke="#EA580C" stroke-width="2.5"/>
    
    <circle cx="100" cy="35" r="22" fill="none" stroke="#F59E0B" stroke-width="2.5"/>
    <path d="M 100 35 L 100 70 M 85 50 L 100 35 L 115 50" stroke="#F59E0B" stroke-width="2.5" fill="none" stroke-linecap="round" stroke-linejoin="round"/>
    
    <rect x="20" y="80" width="160" height="45" rx="4" fill="#1C1917" stroke="#22C55E" stroke-width="2"/>
    <text x="30" y="98" font-family="monospace" font-size="11" fill="#22C55E">$ cron 24/7</text>
    <text x="30" y="113" font-family="monospace" font-size="11" fill="#22C55E">&gt; ALIVE</text>
    
    <circle cx="25" cy="25" r="3" fill="#EF4444"/>
    <circle cx="175" cy="25" r="3" fill="#EF4444"/>
    
    <path d="M 60 155 Q 100 165 140 155" stroke="#A8A29E" stroke-width="1.5" fill="none" stroke-dasharray="3,3"/>
  </g>
  
  <rect x="0" y="293" width="660" height="7" fill="url(#accentGrad)"/>
</svg>