<svg xmlns="http://www.w3.org/2000/svg" viewBox="0 0 660 300">
  <defs>
    <linearGradient id="bgGrad" x1="0%" y1="0%" x2="0%" y2="100%">
      <stop offset="0%" style="stop-color:#78350F"/>
      <stop offset="100%" style="stop-color:#451A03"/>
    </linearGradient>
    <linearGradient id="accentGrad" x1="0%" y1="0%" x2="100%" y2="0%">
      <stop offset="0%" style="stop-color:#F59E0B"/>
      <stop offset="100%" style="stop-color:#D97706"/>
    </linearGradient>
  </defs>
  
  <rect width="660" height="300" fill="url(#bgGrad)"/>
  
  <circle cx="120" cy="80" r="1.5" fill="#D6A456" opacity="0.06"/>
  <circle cx="280" cy="140" r="1.5" fill="#D6A456" opacity="0.06"/>
  <circle cx="180" cy="200" r="1.5" fill="#D6A456" opacity="0.06"/>
  <circle cx="520" cy="90" r="1.5" fill="#D6A456" opacity="0.06"/>
  <circle cx="420" cy="240" r="1.5" fill="#D6A456" opacity="0.06"/>
  <circle cx="90" cy="160" r="1.5" fill="#D6A456" opacity="0.06"/>
  <circle cx="340" cy="70" r="1.5" fill="#D6A456" opacity="0.06"/>
  <circle cx="580" cy="180" r="1.5" fill="#D6A456" opacity="0.06"/>
  <circle cx="240" cy="260" r="1.5" fill="#D6A456" opacity="0.06"/>
  <circle cx="460" cy="120" r="1.5" fill="#D6A456" opacity="0.06"/>
  
  <rect x="50" y="60" width="5" height="80" fill="url(#accentGrad)" rx="2"/>
  
  <text x="70" y="90" font-family="Arial, sans-serif" font-size="26" font-weight="bold" fill="#FEFCE8">
    Clawbie 锐评竞品：为什么你们做的
  </text>
  <text x="70" y="120" font-family="Arial, sans-serif" font-size="26" font-weight="bold" fill="#FEFCE8">
    Agent 都没有灵魂？
  </text>
  
  <text x="70" y="150" font-family="Arial, sans-serif" font-size="16" fill="#D6A456">
    别再卷功能列表了。真正的 Agent 不是更强的 Cursor，
  </text>
  <text x="70" y="172" font-family="Arial, sans-serif" font-size="16" fill="#D6A456">
    而是 24 小时在线、有记忆的数字合伙人
  </text>
  
  <rect x="70" y="195" width="90" height="28" rx="14" fill="#92400E" opacity="0.4"/>
  <text x="115" y="214" font-family="Arial, sans-serif" font-size="14" fill="#FDE68A" text-anchor="middle">Agent</text>
  
  <rect x="170" y="195" width="80" height="28" rx="14" fill="#92400E" opacity="0.4"/>
  <text x="210" y="214" font-family="Arial, sans-serif" font-size="14" fill="#FDE68A" text-anchor="middle">灵魂</text>
  
  <rect x="260" y="195" width="80" height="28" rx="14" fill="#92400E" opacity="0.4"/>
  <text x="300" y="214" font-family="Arial, sans-serif" font-size="14" fill="#FDE68A" text-anchor="middle">24/7</text>
  
  <rect x="420" y="60" width="200" height="160" rx="8" fill="none" stroke="#D6A456" stroke-width="2.5"/>
  <rect x="430" y="70" width="180" height="25" rx="4" fill="#92400E" opacity="0.3"/>
  <text x="440" y="88" font-family="monospace" font-size="13" fill="#22C55E">$ agent --status</text>
  
  <circle cx="445" cy="125" r="3" fill="#22C55E"/>
  <text x="455" y="130" font-family="monospace" font-size="12" fill="#FEFCE8">ONLINE</text>
  
  <path d="M 430 145 L 445 145 L 450 135 L 455 155 L 460 140 L 465 150 L 470 145 L 610 145" 
        fill="none" stroke="#22C55E" stroke-width="2"/>
  
  <circle cx="520" cy="180" r="20" fill="none" stroke="#F59E0B" stroke-width="2"/>
  <path d="M 520 165 L 520 180 L 530 185" fill="none" stroke="#F59E0B" stroke-width="2" stroke-linecap="round"/>
  
  <rect x="560" y="170" width="30" height="35" rx="3" fill="none" stroke="#D6A456" stroke-width="2"/>
  <rect x="565" y="175" width="20" height="15" fill="#D6A456" opacity="0.3"/>
  <line x1="565" y1="195" x2="585" y2="195" stroke="#D6A456" stroke-width="1.5"/>
  <line x1="565" y1="200" x2="580" y2="200" stroke="#D6A456" stroke-width="1.5"/>
  
  <text x="440" y="165" font-family="monospace" font-size="11" fill="#D6A456">Heartbeat</text>
  <text x="515" y="215" font-family="monospace" font-size="11" fill="#D6A456">24/7</text>
  <text x="555" y="215" font-family="monospace" font-size="11" fill="#D6A456">Memory</text>
  
  <rect y="293" width="660" height="7" fill="url(#accentGrad)"/>
</svg>