<svg xmlns="http://www.w3.org/2000/svg" viewBox="0 0 660 300">
  <defs>
    <linearGradient id="bg" x1="0%" y1="0%" x2="0%" y2="100%">
      <stop offset="0%" style="stop-color:#78350F"/>
      <stop offset="100%" style="stop-color:#451A03"/>
    </linearGradient>
    <linearGradient id="accent" x1="0%" y1="0%" x2="100%" y2="0%">
      <stop offset="0%" style="stop-color:#F59E0B"/>
      <stop offset="100%" style="stop-color:#D97706"/>
    </linearGradient>
  </defs>
  
  <rect width="660" height="300" fill="url(#bg)"/>
  
  <circle cx="120" cy="80" r="1.5" fill="#D6A456" opacity="0.06"/>
  <circle cx="280" cy="140" r="1.5" fill="#D6A456" opacity="0.06"/>
  <circle cx="180" cy="200" r="1.5" fill="#D6A456" opacity="0.06"/>
  <circle cx="320" cy="100" r="1.5" fill="#D6A456" opacity="0.06"/>
  <circle cx="150" cy="260" r="1.5" fill="#D6A456" opacity="0.06"/>
  
  <rect x="50" y="50" width="5" height="180" fill="url(#accent)" rx="2"/>
  
  <text x="70" y="75" font-family="Arial, sans-serif" font-size="22" font-weight="bold" fill="#FEFCE8">
    <tspan x="70" dy="0">OpenAI 和 Anthropic</tspan>
    <tspan x="70" dy="28">都在送钱：开源维护者</tspan>
    <tspan x="70" dy="28">如何领 6 个月免费</tspan>
    <tspan x="70" dy="28">AI 工具</tspan>
  </text>
  
  <text x="70" y="175" font-family="Arial, sans-serif" font-size="14" fill="#D6A456">
    两家公司同时推出开源支持计划
  </text>
  
  <rect x="70" y="200" width="85" height="24" rx="12" fill="#92400E" opacity="0.4"/>
  <text x="82" y="216" font-family="Arial, sans-serif" font-size="12" fill="#FDE68A">免费工具</text>
  
  <rect x="165" y="200" width="90" height="24" rx="12" fill="#92400E" opacity="0.4"/>
  <text x="177" y="216" font-family="Arial, sans-serif" font-size="12" fill="#FDE68A">开源支持</text>
  
  <rect x="265" y="200" width="85" height="24" rx="12" fill="#92400E" opacity="0.4"/>
  <text x="277" y="216" font-family="Arial, sans-serif" font-size="12" fill="#FDE68A">搞钱实操</text>
  
  <g transform="translate(430, 50)">
    <rect x="10" y="10" width="180" height="100" rx="8" fill="none" stroke="#F59E0B" stroke-width="2.5"/>
    <rect x="25" y="25" width="70" height="70" rx="6" fill="none" stroke="#D97706" stroke-width="2"/>
    <text x="60" y="65" font-family="monospace" font-size="16" fill="#FEFCE8" text-anchor="middle">AI</text>
    
    <rect x="105" y="25" width="70" height="70" rx="6" fill="none" stroke="#22C55E" stroke-width="2"/>
    <text x="140" y="50" font-family="monospace" font-size="11" fill="#22C55E" text-anchor="middle">FREE</text>
    <text x="140" y="70" font-family="monospace" font-size="18" fill="#FEFCE8" text-anchor="middle" font-weight="bold">$0</text>
    <text x="140" y="85" font-family="monospace" font-size="10" fill="#D6A456" text-anchor="middle">6 months</text>
    
    <path d="M 60 100 L 140 30" stroke="#F59E0B" stroke-width="2" stroke-dasharray="3,3" opacity="0.6"/>
    
    <circle cx="100" cy="130" r="8" fill="#F59E0B"/>
    <text x="100" y="135" font-family="Arial" font-size="10" fill="#451A03" text-anchor="middle" font-weight="bold">✓</text>
  </g>
  
  <rect x="0" y="293" width="660" height="7" fill="url(#accent)"/>
</svg>