<svg width="660" height="300" viewBox="0 0 660 300" fill="none" xmlns="http://www.w3.org/2000/svg">
  <defs>
    <linearGradient id="bgGrad" x1="0" y1="0" x2="660" y2="300" gradientUnits="userSpaceOnUse">
      <stop offset="0" stop-color="#44403C"/>
      <stop offset="1" stop-color="#1C1917"/>
    </linearGradient>
    <linearGradient id="accentGrad" x1="50" y1="0" x2="660" y2="300" gradientUnits="userSpaceOnUse">
      <stop offset="0" stop-color="#EA580C"/>
      <stop offset="1" stop-color="#F59E0B"/>
    </linearGradient>
    <pattern id="grain" width="64" height="64" patternUnits="userSpaceOnUse">
      <circle cx="8" cy="10" r="1.2" fill="#D6D3D1" opacity="0.06"/>
      <circle cx="22" cy="18" r="0.8" fill="#D6D3D1" opacity="0.06"/>
      <circle cx="39" cy="9" r="1.1" fill="#D6D3D1" opacity="0.06"/>
      <circle cx="56" cy="15" r="0.9" fill="#D6D3D1" opacity="0.06"/>
      <circle cx="14" cy="31" r="0.9" fill="#D6D3D1" opacity="0.06"/>
      <circle cx="29" cy="27" r="1.3" fill="#D6D3D1" opacity="0.06"/>
      <circle cx="46" cy="36" r="0.8" fill="#D6D3D1" opacity="0.06"/>
      <circle cx="59" cy="28" r="1.1" fill="#D6D3D1" opacity="0.06"/>
      <circle cx="9" cy="52" r="0.8" fill="#D6D3D1" opacity="0.06"/>
      <circle cx="24" cy="48" r="1.2" fill="#D6D3D1" opacity="0.06"/>
      <circle cx="41" cy="55" r="0.9" fill="#D6D3D1" opacity="0.06"/>
      <circle cx="54" cy="46" r="1.2" fill="#D6D3D1" opacity="0.06"/>
    </pattern>
  </defs>

  <rect width="660" height="300" fill="url(#bgGrad)"/>
  <rect width="660" height="300" fill="url(#grain)"/>

  <rect x="50" y="28" width="5" height="220" rx="2.5" fill="url(#accentGrad)"/>

  <g transform="translate(70 74)">
    <text fill="#FAFAF9" font-family="Inter, PingFang SC, Microsoft YaHei, Noto Sans CJK SC, sans-serif" font-size="22" font-weight="700">
      <tspan x="0" y="0">依赖漏洞检查：</tspan>
      <tspan x="0" dy="28">发版前5分钟自救清单</tspan>
    </text>
    <text x="0" y="72" fill="#A8A29E" font-family="Inter, PingFang SC, Microsoft YaHei, Noto Sans CJK SC, sans-serif" font-size="13">
      独立开发者发版前最容易漏掉的一步：用 OSV.dev 做 5 分钟依赖体检
    </text>
  </g>

  <g transform="translate(70 238)">
    <rect x="0" y="0" width="78" height="24" rx="12" fill="#57534E" fill-opacity="0.4"/>
    <text x="39" y="16" text-anchor="middle" fill="#D6D3D1" font-family="Inter, PingFang SC, Microsoft YaHei, Noto Sans CJK SC, sans-serif" font-size="12">OSV.dev</text>

    <rect x="88" y="0" width="84" height="24" rx="12" fill="#57534E" fill-opacity="0.4"/>
    <text x="130" y="16" text-anchor="middle" fill="#D6D3D1" font-family="Inter, PingFang SC, Microsoft YaHei, Noto Sans CJK SC, sans-serif" font-size="12">依赖安全</text>

    <rect x="182" y="0" width="84" height="24" rx="12" fill="#57534E" fill-opacity="0.4"/>
    <text x="224" y="16" text-anchor="middle" fill="#D6D3D1" font-family="Inter, PingFang SC, Microsoft YaHei, Noto Sans CJK SC, sans-serif" font-size="12">发版检查</text>
  </g>

  <g opacity="0.22" stroke="#F59E0B" stroke-width="2.2" stroke-linecap="round" stroke-linejoin="round" fill="none">
    <path d="M536 191l19 7v16c0 16-11 28-19 32-8-4-19-16-19-32v-16l19-7z"/>
    <path d="M528 214l6 6 11-13"/>

    <path d="M586 214l14-8 14 8v16l-14 8-14-8v-16z"/>
    <path d="M600 206v16"/>
    <path d="M586 214l14 8 14-8"/>
  </g>

  <rect x="0" y="293" width="660" height="7" fill="url(#accentGrad)"/>
</svg>