<svg xmlns="http://www.w3.org/2000/svg" width="660" height="300" viewBox="0 0 660 300" role="img" aria-label="OpenAI 合作网络正在重塑会 AI 的赚钱门槛">
  <defs>
    <linearGradient id="bg" x1="0" y1="0" x2="1" y2="1">
      <stop offset="0%" stop-color="#78350F"/>
      <stop offset="100%" stop-color="#451A03"/>
    </linearGradient>
    <linearGradient id="accent" x1="0" y1="0" x2="0" y2="1">
      <stop offset="0%" stop-color="#F59E0B"/>
      <stop offset="100%" stop-color="#D97706"/>
    </linearGradient>
    <radialGradient id="glow" cx="0.18" cy="0.22" r="0.9">
      <stop offset="0%" stop-color="#F59E0B" stop-opacity="0.16"/>
      <stop offset="55%" stop-color="#F59E0B" stop-opacity="0.06"/>
      <stop offset="100%" stop-color="#F59E0B" stop-opacity="0"/>
    </radialGradient>
  </defs>

  <rect width="660" height="300" fill="url(#bg)"/>
  <rect width="660" height="300" fill="url(#glow)"/>

  <g opacity="0.06" fill="#D6A456">
    <circle cx="28" cy="24" r="1.8"/><circle cx="62" cy="38" r="1.3"/><circle cx="94" cy="18" r="2.1"/><circle cx="126" cy="52" r="1.5"/>
    <circle cx="170" cy="28" r="1.7"/><circle cx="212" cy="46" r="1.2"/><circle cx="248" cy="22" r="2.0"/><circle cx="286" cy="58" r="1.4"/>
    <circle cx="326" cy="30" r="1.8"/><circle cx="370" cy="44" r="1.3"/><circle cx="412" cy="18" r="2.2"/><circle cx="450" cy="54" r="1.5"/>
    <circle cx="498" cy="28" r="1.6"/><circle cx="546" cy="46" r="1.2"/><circle cx="592" cy="20" r="2.0"/><circle cx="636" cy="58" r="1.4"/>
    <circle cx="40" cy="96" r="1.4"/><circle cx="84" cy="120" r="2.1"/><circle cx="140" cy="104" r="1.2"/><circle cx="196" cy="128" r="1.7"/>
    <circle cx="260" cy="112" r="1.5"/><circle cx="318" cy="96" r="2.0"/><circle cx="384" cy="124" r="1.3"/><circle cx="446" cy="102" r="1.8"/>
    <circle cx="516" cy="126" r="1.4"/><circle cx="590" cy="102" r="2.1"/><circle cx="624" cy="124" r="1.3"/><circle cx="34" cy="174" r="1.7"/>
    <circle cx="96" cy="160" r="1.2"/><circle cx="164" cy="188" r="2.0"/><circle cx="226" cy="168" r="1.4"/><circle cx="292" cy="184" r="1.6"/>
    <circle cx="352" cy="166" r="1.2"/><circle cx="422" cy="190" r="2.1"/><circle cx="490" cy="170" r="1.4"/><circle cx="566" cy="188" r="1.8"/>
    <circle cx="628" cy="170" r="1.2"/><circle cx="56" cy="246" r="1.8"/><circle cx="118" cy="228" r="1.3"/><circle cx="178" cy="252" r="2.0"/>
    <circle cx="244" cy="236" r="1.4"/><circle cx="306" cy="254" r="1.6"/><circle cx="372" cy="232" r="1.2"/><circle cx="438" cy="250" r="2.1"/>
    <circle cx="508" cy="236" r="1.4"/><circle cx="578" cy="252" r="1.8"/><circle cx="642" cy="232" r="1.2"/>
  </g>

  <rect x="50" y="0" width="5" height="293" fill="url(#accent)"/>
  <rect x="0" y="293" width="660" height="7" fill="url(#accent)"/>

  <text x="70" y="80" fill="#FEFCE8" font-size="22" font-weight="700" font-family="system-ui,-apple-system,BlinkMacSystemFont,'Noto Sans SC','PingFang SC',sans-serif">
    <tspan x="70" dy="0">别只会接 API 了！</tspan>
    <tspan x="70" dy="28">OpenAI 合作网络正在</tspan>
    <tspan x="70" dy="28">重塑「会 AI」的赚钱门槛</tspan>
  </text>

  <text x="70" y="160" fill="#D6A456" font-size="13" font-family="system-ui,-apple-system,BlinkMacSystemFont,'Noto Sans SC','PingFang SC',sans-serif">
    OPN 不只是名单，它在重写 AI 交付门槛
  </text>

  <g font-family="system-ui,-apple-system,BlinkMacSystemFont,'Noto Sans SC','PingFang SC',sans-serif" font-size="12" font-weight="600" text-anchor="middle">
    <g transform="translate(70,238)">
      <rect width="84" height="24" rx="12" fill="#92400E" opacity="0.4"/>
      <text x="42" y="16" fill="#FDE68A">合作网络</text>
    </g>
    <g transform="translate(164,238)">
      <rect width="76" height="24" rx="12" fill="#92400E" opacity="0.4"/>
      <text x="38" y="16" fill="#FDE68A">AI 变现</text>
    </g>
    <g transform="translate(250,238)">
      <rect width="84" height="24" rx="12" fill="#92400E" opacity="0.4"/>
      <text x="42" y="16" fill="#FDE68A">交付能力</text>
    </g>
  </g>

  <g transform="translate(506,194)" fill="none" stroke-linecap="round" stroke-linejoin="round" opacity="0.22">
    <path d="M18 20 L42 8 L62 24 L46 50 L22 42 Z" stroke="#F59E0B" stroke-width="1.6"/>
    <path d="M18 20 L46 50" stroke="#D6A456" stroke-width="1.4"/>
    <path d="M42 8 L22 42" stroke="#D6A456" stroke-width="1.4"/>
    <path d="M42 8 L62 24" stroke="#F59E0B" stroke-width="1.4"/>
    <circle cx="18" cy="20" r="3.2" stroke="#F59E0B" stroke-width="1.4"/>
    <circle cx="42" cy="8" r="3.2" stroke="#F59E0B" stroke-width="1.4"/>
    <circle cx="62" cy="24" r="3.2" stroke="#F59E0B" stroke-width="1.4"/>
    <circle cx="46" cy="50" r="3.2" stroke="#F59E0B" stroke-width="1.4"/>
    <circle cx="22" cy="42" r="3.2" stroke="#F59E0B" stroke-width="1.4"/>
  </g>

  <g transform="translate(592,214)" fill="none" stroke-linecap="round" stroke-linejoin="round" opacity="0.18">
    <rect x="0" y="0" width="48" height="48" rx="10" stroke="#D6A456" stroke-width="1.6"/>
    <path d="M10 29 L18 21 L26 28 L36 16" stroke="#F59E0B" stroke-width="2"/>
    <path d="M34 16 L36 16 L36 18" stroke="#F59E0B" stroke-width="2"/>
    <circle cx="10" cy="29" r="2.6" stroke="#D6A456" stroke-width="1.2"/>
    <circle cx="18" cy="21" r="2.6" stroke="#D6A456" stroke-width="1.2"/>
    <circle cx="26" cy="28" r="2.6" stroke="#D6A456" stroke-width="1.2"/>
    <circle cx="36" cy="16" r="2.6" stroke="#D6A456" stroke-width="1.2"/>
  </g>
</svg>