<svg xmlns="http://www.w3.org/2000/svg" viewBox="0 0 660 300">
  <defs>
    <linearGradient id="bgGrad" x1="0%" y1="0%" x2="0%" y2="100%">
      <stop offset="0%" style="stop-color:#3F4A3C;stop-opacity:1" />
      <stop offset="100%" style="stop-color:#1A2218;stop-opacity:1" />
    </linearGradient>
    <linearGradient id="accentGrad" x1="0%" y1="0%" x2="0%" y2="100%">
      <stop offset="0%" style="stop-color:#8B9A6D;stop-opacity:1" />
      <stop offset="100%" style="stop-color:#6B7A4E;stop-opacity:1" />
    </linearGradient>
  </defs>
  
  <rect width="660" height="300" fill="url(#bgGrad)"/>
  
  <g opacity="0.06">
    <circle cx="120" cy="45" r="1.5" fill="#A8B89A"/>
    <circle cx="280" cy="90" r="1.2" fill="#A8B89A"/>
    <circle cx="450" cy="65" r="1.8" fill="#A8B89A"/>
    <circle cx="190" cy="140" r="1.3" fill="#A8B89A"/>
    <circle cx="380" cy="180" r="1.6" fill="#A8B89A"/>
    <circle cx="520" cy="120" r="1.4" fill="#A8B89A"/>
    <circle cx="150" cy="220" r="1.5" fill="#A8B89A"/>
    <circle cx="340" cy="250" r="1.2" fill="#A8B89A"/>
  </g>
  
  <rect x="50" y="0" width="5" height="300" fill="url(#accentGrad)"/>
  
  <text x="70" y="80" font-family="system-ui, -apple-system, sans-serif" font-size="22" font-weight="bold" fill="#F0F4EC">
    <tspan x="70" dy="0">Prompt 注入防不住？</tspan>
    <tspan x="70" dy="28">OpenAI 说，别指望过滤器了</tspan>
  </text>
  
  <text x="70" y="150" font-family="system-ui, -apple-system, sans-serif" font-size="13" fill="#A8B89A">
    OpenAI 承认 prompt 注入已经进化成社会工程学攻击
  </text>
  
  <g transform="translate(70, 245)">
    <rect width="85" height="24" rx="12" fill="#5A664F" opacity="0.4"/>
    <text x="42.5" y="16" font-family="system-ui, -apple-system, sans-serif" font-size="11" fill="#D4DEC8" text-anchor="middle">AI 安全</text>
  </g>
  
  <g transform="translate(165, 245)">
    <rect width="90" height="24" rx="12" fill="#5A664F" opacity="0.4"/>
    <text x="45" y="16" font-family="system-ui, -apple-system, sans-serif" font-size="11" fill="#D4DEC8" text-anchor="middle">社会工程</text>
  </g>
  
  <g transform="translate(265, 245)">
    <rect width="75" height="24" rx="12" fill="#5A664F" opacity="0.4"/>
    <text x="37.5" y="16" font-family="system-ui, -apple-system, sans-serif" font-size="11" fill="#D4DEC8" text-anchor="middle">防护策略</text>
  </g>
  
  <g transform="translate(530, 210)" opacity="0.2">
    <path d="M 0 0 L 50 0 L 50 50 L 0 50 Z M 10 10 L 40 10 L 40 20 L 10 20 Z M 10 25 L 40 25 L 40 35 L 10 35 Z" stroke="#8B9A6D" stroke-width="2" fill="none"/>
    <line x1="25" y1="40" x2="25" y2="50" stroke="#8B9A6D" stroke-width="2"/>
    <circle cx="25" cy="5" r="3" fill="#8B9A6D"/>
  </g>
  
  <g transform="translate(495, 195)" opacity="0.18">
    <path d="M 20 0 L 30 15 L 20 30 L 10 15 Z" stroke="#A8B89A" stroke-width="1.5" fill="none"/>
    <line x1="20" y1="10" x2="20" y2="20" stroke="#A8B89A" stroke-width="1.5"/>
  </g>
  
  <rect x="0" y="293" width="660" height="7" fill="url(#accentGrad)"/>
</svg>