<svg width="660" height="300" viewBox="0 0 660 300" fill="none" xmlns="http://www.w3.org/2000/svg">
  <defs>
    <linearGradient id="bgGrad" x1="0" y1="0" x2="660" y2="300" gradientUnits="userSpaceOnUse">
      <stop offset="0%" stop-color="#44403C"/>
      <stop offset="100%" stop-color="#1C1917"/>
    </linearGradient>
    <linearGradient id="accentGrad" x1="50" y1="0" x2="610" y2="300" gradientUnits="userSpaceOnUse">
      <stop offset="0%" stop-color="#EA580C"/>
      <stop offset="100%" stop-color="#F59E0B"/>
    </linearGradient>
  </defs>

  <rect width="660" height="300" fill="url(#bgGrad)"/>

  <g opacity="0.06" fill="#D6D3D1">
    <circle cx="28" cy="34" r="1.2"/><circle cx="74" cy="22" r="0.9"/><circle cx="126" cy="40" r="1.5"/>
    <circle cx="182" cy="28" r="1.1"/><circle cx="236" cy="36" r="0.8"/><circle cx="291" cy="24" r="1.4"/>
    <circle cx="348" cy="42" r="1.1"/><circle cx="405" cy="30" r="0.9"/><circle cx="458" cy="20" r="1.3"/>
    <circle cx="520" cy="38" r="1.1"/><circle cx="576" cy="26" r="0.8"/><circle cx="628" cy="34" r="1.2"/>

    <circle cx="42" cy="78" r="0.9"/><circle cx="96" cy="92" r="1.3"/><circle cx="152" cy="70" r="1.1"/>
    <circle cx="214" cy="88" r="0.8"/><circle cx="268" cy="74" r="1.4"/><circle cx="324" cy="96" r="1.1"/>
    <circle cx="378" cy="82" r="0.9"/><circle cx="434" cy="68" r="1.2"/><circle cx="492" cy="90" r="1.0"/>
    <circle cx="548" cy="76" r="1.3"/><circle cx="606" cy="86" r="0.9"/>

    <circle cx="30" cy="132" r="1.2"/><circle cx="88" cy="118" r="0.8"/><circle cx="140" cy="144" r="1.4"/>
    <circle cx="198" cy="126" r="1.0"/><circle cx="252" cy="138" r="0.9"/><circle cx="310" cy="122" r="1.2"/>
    <circle cx="366" cy="146" r="0.8"/><circle cx="420" cy="128" r="1.3"/><circle cx="474" cy="140" r="1.0"/>
    <circle cx="534" cy="124" r="1.1"/><circle cx="592" cy="136" r="0.8"/><circle cx="636" cy="118" r="1.2"/>

    <circle cx="54" cy="182" r="1.0"/><circle cx="108" cy="196" r="1.2"/><circle cx="162" cy="176" r="0.9"/>
    <circle cx="222" cy="188" r="1.4"/><circle cx="278" cy="170" r="0.8"/><circle cx="334" cy="194" r="1.1"/>
    <circle cx="388" cy="180" r="0.9"/><circle cx="446" cy="198" r="1.3"/><circle cx="502" cy="174" r="1.0"/>
    <circle cx="560" cy="192" r="0.8"/><circle cx="618" cy="178" r="1.2"/>

    <circle cx="26" cy="236" r="1.1"/><circle cx="82" cy="220" r="0.9"/><circle cx="136" cy="244" r="1.3"/>
    <circle cx="190" cy="228" r="1.0"/><circle cx="248" cy="240" r="0.8"/><circle cx="304" cy="222" r="1.2"/>
    <circle cx="360" cy="246" r="0.9"/><circle cx="418" cy="232" r="1.1"/><circle cx="474" cy="242" r="0.8"/>
    <circle cx="530" cy="226" r="1.4"/><circle cx="588" cy="238" r="0.9"/><circle cx="634" cy="224" r="1.1"/>

    <circle cx="46" cy="272" r="0.9"/><circle cx="104" cy="284" r="1.2"/><circle cx="160" cy="268" r="0.8"/>
    <circle cx="218" cy="282" r="1.1"/><circle cx="274" cy="270" r="0.9"/><circle cx="330" cy="286" r="1.3"/>
    <circle cx="388" cy="274" r="0.8"/><circle cx="444" cy="288" r="1.0"/><circle cx="502" cy="276" r="1.2"/>
    <circle cx="560" cy="284" r="0.9"/><circle cx="620" cy="270" r="1.1"/>
  </g>

  <rect x="50" y="24" width="5" height="228" rx="2.5" fill="url(#accentGrad)"/>

  <text x="70" y="78" fill="#FAFAF9" font-size="22" font-weight="700" font-family="system-ui, -apple-system, BlinkMacSystemFont, 'Segoe UI', sans-serif">
    <tspan x="70" dy="0">Prompt Injection 防护：</tspan>
    <tspan x="70" dy="28">别让 Agent 一句话失控</tspan>
  </text>

  <text x="70" y="140" fill="#A8A29E" font-size="13" font-weight="400" font-family="system-ui, -apple-system, BlinkMacSystemFont, 'Segoe UI', sans-serif">
    Prompt Injection 防护不是安全团队的专属课题。只要你的 Agen
  </text>

  <g>
    <rect x="70" y="238" width="82" height="24" rx="12" fill="#57534E" fill-opacity="0.4"/>
    <text x="111" y="254" text-anchor="middle" fill="#D6D3D1" font-size="12" font-weight="500" font-family="system-ui, -apple-system, BlinkMacSystemFont, 'Segoe UI', sans-serif">Prompt Injection</text>

    <rect x="162" y="238" width="74" height="24" rx="12" fill="#57534E" fill-opacity="0.4"/>
    <text x="199" y="254" text-anchor="middle" fill="#D6D3D1" font-size="12" font-weight="500" font-family="system-ui, -apple-system, BlinkMacSystemFont, 'Segoe UI', sans-serif">Agent 安全</text>

    <rect x="246" y="238" width="72" height="24" rx="12" fill="#57534E" fill-opacity="0.4"/>
    <text x="282" y="254" text-anchor="middle" fill="#D6D3D1" font-size="12" font-weight="500" font-family="system-ui, -apple-system, BlinkMacSystemFont, 'Segoe UI', sans-serif">权限隔离</text>
  </g>

  <g opacity="0.22" stroke="#EA580C" stroke-width="2" stroke-linecap="round" stroke-linejoin="round" fill="none">
    <rect x="540" y="188" width="54" height="40" rx="6"/>
    <path d="M550 200H584"/>
    <path d="M550 208H574"/>
    <path d="M550 216H568"/>
    <path d="M584 188V176"/>
    <path d="M578 182H590"/>
  </g>

  <g opacity="0.18" stroke="#A8A29E" stroke-width="2" stroke-linecap="round" stroke-linejoin="round" fill="none">
    <path d="M515 246C515 235 524 226 535 226H553C564 226 573 235 573 246C573 257 564 266 553 266H535C524 266 515 257 515 246Z"/>
    <path d="M527 246L537 256L559 234"/>
  </g>

  <rect x="0" y="293" width="660" height="7" fill="url(#accentGrad)"/>
</svg>