<svg width="660" height="300" viewBox="0 0 660 300" fill="none" xmlns="http://www.w3.org/2000/svg">
  <defs>
    <linearGradient id="bg" x1="0" y1="0" x2="660" y2="300" gradientUnits="userSpaceOnUse">
      <stop offset="0%" stop-color="#44403C"/>
      <stop offset="100%" stop-color="#1C1917"/>
    </linearGradient>
    <linearGradient id="accent" x1="50" y1="0" x2="610" y2="300" gradientUnits="userSpaceOnUse">
      <stop offset="0%" stop-color="#EA580C"/>
      <stop offset="100%" stop-color="#F59E0B"/>
    </linearGradient>
    <pattern id="texture" width="36" height="36" patternUnits="userSpaceOnUse">
      <circle cx="6" cy="8" r="1.2" fill="#D6D3D1" opacity="0.06"/>
      <circle cx="18" cy="12" r="0.9" fill="#D6D3D1" opacity="0.06"/>
      <circle cx="29" cy="7" r="1.1" fill="#D6D3D1" opacity="0.06"/>
      <circle cx="11" cy="22" r="0.8" fill="#D6D3D1" opacity="0.06"/>
      <circle cx="24" cy="27" r="1.3" fill="#D6D3D1" opacity="0.06"/>
      <circle cx="33" cy="19" r="0.7" fill="#D6D3D1" opacity="0.06"/>
      <circle cx="5" cy="31" r="1" fill="#D6D3D1" opacity="0.06"/>
    </pattern>
  </defs>

  <rect width="660" height="300" fill="url(#bg)"/>
  <rect width="660" height="300" fill="url(#texture)"/>

  <rect x="50" y="28" width="5" height="216" rx="2.5" fill="url(#accent)"/>

  <text x="70" y="88" fill="#FAFAF9" font-size="22" font-weight="700" font-family="system-ui, -apple-system, BlinkMacSystemFont, 'Segoe UI', sans-serif">
    <tspan x="70" dy="0">Prompt Injection 怎么防：</tspan>
    <tspan x="70" dy="28">上线前先过 4 道闸</tspan>
  </text>

  <text x="70" y="150" fill="#A8A29E" font-size="13" font-weight="400" font-family="system-ui, -apple-system, BlinkMacSystemFont, 'Segoe UI', sans-serif">
    Prompt Injection 怎么防，不是多写几句系统提示词，而是先把会读网
  </text>

  <g>
    <rect x="70" y="240" width="78" height="24" rx="12" fill="#57534E" fill-opacity="0.4"/>
    <text x="109" y="256" text-anchor="middle" fill="#D6D3D1" font-size="12" font-family="system-ui, -apple-system, BlinkMacSystemFont, 'Segoe UI', sans-serif">Prompt 注入</text>

    <rect x="158" y="240" width="74" height="24" rx="12" fill="#57534E" fill-opacity="0.4"/>
    <text x="195" y="256" text-anchor="middle" fill="#D6D3D1" font-size="12" font-family="system-ui, -apple-system, BlinkMacSystemFont, 'Segoe UI', sans-serif">AI Agent</text>

    <rect x="242" y="240" width="74" height="24" rx="12" fill="#57534E" fill-opacity="0.4"/>
    <text x="279" y="256" text-anchor="middle" fill="#D6D3D1" font-size="12" font-family="system-ui, -apple-system, BlinkMacSystemFont, 'Segoe UI', sans-serif">工具调用</text>
  </g>

  <g opacity="0.22" stroke="#EA580C" stroke-width="2" stroke-linecap="round" stroke-linejoin="round" fill="none">
    <rect x="510" y="190" width="54" height="40" rx="8"/>
    <path d="M522 202H552"/>
    <path d="M522 211H545"/>
    <path d="M522 220H540"/>
    <path d="M574 206L584 216L602 194"/>
  </g>

  <g opacity="0.18" stroke="#A8A29E" stroke-width="2" stroke-linecap="round" stroke-linejoin="round" fill="none">
    <path d="M530 252H590"/>
    <path d="M540 252V236C540 229.373 545.373 224 552 224H568C574.627 224 580 229.373 580 236V252"/>
    <path d="M553 238H567"/>
  </g>

  <rect x="0" y="293" width="660" height="7" fill="url(#accent)"/>
</svg>