<svg width="660" height="300" viewBox="0 0 660 300" fill="none" xmlns="http://www.w3.org/2000/svg">
  <defs>
    <linearGradient id="bgGrad" x1="0" y1="0" x2="660" y2="300" gradientUnits="userSpaceOnUse">
      <stop offset="0" stop-color="#44403C"/>
      <stop offset="1" stop-color="#1C1917"/>
    </linearGradient>
    <linearGradient id="accentGrad" x1="50" y1="0" x2="50" y2="300" gradientUnits="userSpaceOnUse">
      <stop offset="0" stop-color="#EA580C"/>
      <stop offset="1" stop-color="#F59E0B"/>
    </linearGradient>
    <linearGradient id="barGrad" x1="0" y1="293" x2="660" y2="293" gradientUnits="userSpaceOnUse">
      <stop offset="0" stop-color="#EA580C"/>
      <stop offset="1" stop-color="#F59E0B"/>
    </linearGradient>
  </defs>

  <rect width="660" height="300" fill="url(#bgGrad)"/>

  <g opacity="0.06" fill="#D6D3D1">
    <circle cx="36" cy="28" r="1.2"/><circle cx="92" cy="46" r="0.9"/><circle cx="144" cy="30" r="1.1"/>
    <circle cx="210" cy="54" r="1.3"/><circle cx="264" cy="22" r="0.8"/><circle cx="327" cy="40" r="1.1"/>
    <circle cx="388" cy="25" r="0.9"/><circle cx="452" cy="48" r="1.2"/><circle cx="521" cy="34" r="0.8"/>
    <circle cx="588" cy="26" r="1.1"/><circle cx="628" cy="52" r="1.2"/><circle cx="58" cy="86" r="0.8"/>
    <circle cx="118" cy="98" r="1.1"/><circle cx="176" cy="82" r="0.9"/><circle cx="239" cy="106" r="1.2"/>
    <circle cx="301" cy="88" r="0.8"/><circle cx="358" cy="110" r="1.1"/><circle cx="423" cy="92" r="0.9"/>
    <circle cx="486" cy="104" r="1.3"/><circle cx="550" cy="84" r="0.8"/><circle cx="612" cy="96" r="1.2"/>
    <circle cx="42" cy="146" r="1.1"/><circle cx="108" cy="132" r="0.8"/><circle cx="168" cy="154" r="1.2"/>
    <circle cx="226" cy="138" r="0.9"/><circle cx="288" cy="150" r="1.1"/><circle cx="344" cy="136" r="0.8"/>
    <circle cx="409" cy="158" r="1.2"/><circle cx="468" cy="142" r="0.9"/><circle cx="532" cy="154" r="1.1"/>
    <circle cx="596" cy="138" r="0.8"/><circle cx="624" cy="162" r="1.2"/><circle cx="64" cy="204" r="0.9"/>
    <circle cx="126" cy="188" r="1.1"/><circle cx="184" cy="212" r="0.8"/><circle cx="246" cy="196" r="1.3"/>
    <circle cx="314" cy="214" r="0.9"/><circle cx="372" cy="192" r="1.1"/><circle cx="436" cy="208" r="0.8"/>
    <circle cx="498" cy="194" r="1.2"/><circle cx="566" cy="216" r="0.9"/><circle cx="620" cy="198" r="1.1"/>
    <circle cx="30" cy="254" r="0.8"/><circle cx="96" cy="270" r="1.2"/><circle cx="156" cy="248" r="0.9"/>
    <circle cx="220" cy="266" r="1.1"/><circle cx="278" cy="252" r="0.8"/><circle cx="340" cy="272" r="1.2"/>
    <circle cx="404" cy="246" r="0.9"/><circle cx="468" cy="268" r="1.1"/><circle cx="534" cy="250" r="0.8"/>
    <circle cx="598" cy="270" r="1.2"/>
  </g>

  <rect x="50" y="24" width="5" height="236" rx="2.5" fill="url(#accentGrad)"/>

  <text x="70" y="82" fill="#FAFAF9" font-size="22" font-weight="700" font-family="Inter, PingFang SC, Hiragino Sans GB, Microsoft YaHei, sans-serif">
    <tspan x="70" dy="0">Qwen加速：MTP值不值得开？</tspan>
    <tspan x="70" dy="28">一套测速法定胜负</tspan>
  </text>

  <text x="70" y="143" fill="#A8A29E" font-size="13" font-family="Inter, PingFang SC, Hiragino Sans GB, Microsoft YaHei, sans-serif">
    Qwen 3.6 27B 本地推理慢，多半不是模型不行，是你没把速度拆开测：首 token 延迟、tok/s 吞吐、长上下文退化
  </text>

  <g>
    <rect x="70" y="236" width="84" height="24" rx="12" fill="#57534E" fill-opacity="0.4"/>
    <text x="112" y="252" text-anchor="middle" fill="#D6D3D1" font-size="12" font-family="Inter, PingFang SC, Hiragino Sans GB, Microsoft YaHei, sans-serif">MTP测速</text>

    <rect x="165" y="236" width="82" height="24" rx="12" fill="#57534E" fill-opacity="0.4"/>
    <text x="206" y="252" text-anchor="middle" fill="#D6D3D1" font-size="12" font-family="Inter, PingFang SC, Hiragino Sans GB, Microsoft YaHei, sans-serif">首Token</text>

    <rect x="258" y="236" width="74" height="24" rx="12" fill="#57534E" fill-opacity="0.4"/>
    <text x="295" y="252" text-anchor="middle" fill="#D6D3D1" font-size="12" font-family="Inter, PingFang SC, Hiragino Sans GB, Microsoft YaHei, sans-serif">tok/s</text>
  </g>

  <g opacity="0.22" stroke="#A8A29E" stroke-width="2" stroke-linecap="round" stroke-linejoin="round" fill="none">
    <rect x="515" y="188" width="58" height="58" rx="10"/>
    <path d="M527 232L540 219L549 226L562 209"/>
    <path d="M528 201V233"/>
    <path d="M528 233H562"/>
    <circle cx="562" cy="209" r="2.5" fill="#A8A29E" stroke="none"/>
  </g>

  <g opacity="0.18" stroke="#EA580C" stroke-width="2.2" stroke-linecap="round" stroke-linejoin="round" fill="none">
    <path d="M595 246A28 28 0 1 1 639 223"/>
    <path d="M617 224L632 211"/>
    <circle cx="617" cy="224" r="3" fill="#EA580C" stroke="none"/>
    <path d="M603 252H631"/>
  </g>

  <rect x="0" y="293" width="660" height="7" fill="url(#barGrad)"/>
</svg>