<svg xmlns="http://www.w3.org/2000/svg" viewBox="0 0 660 300">
  <defs>
    <linearGradient id="bgGrad" x1="0%" y1="0%" x2="0%" y2="100%">
      <stop offset="0%" style="stop-color:#57534E"/>
      <stop offset="100%" style="stop-color:#292524"/>
    </linearGradient>
    <linearGradient id="accentGrad" x1="0%" y1="0%" x2="100%" y2="0%">
      <stop offset="0%" style="stop-color:#D6D3D1"/>
      <stop offset="100%" style="stop-color:#A8A29E"/>
    </linearGradient>
  </defs>
  
  <rect width="660" height="300" fill="url(#bgGrad)"/>
  
  <circle cx="120" cy="80" r="1.5" fill="#A8A29E" opacity="0.06"/>
  <circle cx="280" cy="140" r="1.5" fill="#A8A29E" opacity="0.06"/>
  <circle cx="180" cy="200" r="1.5" fill="#A8A29E" opacity="0.06"/>
  <circle cx="320" cy="100" r="1.5" fill="#A8A29E" opacity="0.06"/>
  <circle cx="90" cy="180" r="1.5" fill="#A8A29E" opacity="0.06"/>
  <circle cx="240" cy="60" r="1.5" fill="#A8A29E" opacity="0.06"/>
  <circle cx="350" cy="220" r="1.5" fill="#A8A29E" opacity="0.06"/>
  <circle cx="150" cy="120" r="1.5" fill="#A8A29E" opacity="0.06"/>
  
  <rect x="50" y="50" width="5" height="180" fill="url(#accentGrad)"/>
  
  <text x="70" y="75" font-family="Arial, sans-serif" font-size="22" font-weight="bold" fill="#FAFAF9">
    别抄好产品了：
  </text>
  <text x="70" y="103" font-family="Arial, sans-serif" font-size="22" font-weight="bold" fill="#FAFAF9">
    反向模仿烂产品，
  </text>
  <text x="70" y="131" font-family="Arial, sans-serif" font-size="22" font-weight="bold" fill="#FAFAF9">
    才是独立开发者的
  </text>
  <text x="70" y="159" font-family="Arial, sans-serif" font-size="22" font-weight="bold" fill="#FAFAF9">
    蓝海
  </text>
  
  <text x="70" y="185" font-family="Arial, sans-serif" font-size="14" fill="#A8A29E">
    人人都在抄 Notion、抄 Linear，但有人靠模仿「老年养生号」...
  </text>
  
  <rect x="70" y="205" width="85" height="24" rx="12" fill="#78716C" opacity="0.4"/>
  <text x="82" y="221" font-family="Arial, sans-serif" font-size="13" fill="#E7E5E4">反向思维</text>
  
  <rect x="165" y="205" width="75" height="24" rx="12" fill="#78716C" opacity="0.4"/>
  <text x="177" y="221" font-family="Arial, sans-serif" font-size="13" fill="#E7E5E4">蓝海市场</text>
  
  <rect x="250" y="205" width="75" height="24" rx="12" fill="#78716C" opacity="0.4"/>
  <text x="262" y="221" font-family="Arial, sans-serif" font-size="13" fill="#E7E5E4">借壳策略</text>
  
  <g transform="translate(430, 50)">
    <rect x="20" y="20" width="160" height="120" rx="8" fill="none" stroke="#D6D3D1" stroke-width="2" stroke-dasharray="5,5"/>
    
    <rect x="45" y="40" width="50" height="35" rx="4" fill="#78716C" opacity="0.3"/>
    <text x="52" y="60" font-family="monospace" font-size="11" fill="#FAFAF9">养生号</text>
    <text x="52" y="72" font-family="monospace" font-size="9" fill="#A8A29E">烂壳</text>
    
    <path d="M 100 57 L 115 57" stroke="#22C55E" stroke-width="2" marker-end="url(#arrowGreen)"/>
    <defs>
      <marker id="arrowGreen" markerWidth="10" markerHeight="10" refX="9" refY="3" orient="auto">
        <polygon points="0 0, 10 3, 0 6" fill="#22C55E"/>
      </marker>
    </defs>
    
    <rect x="120" y="40" width="50" height="35" rx="4" fill="#22C55E" opacity="0.3"/>
    <text x="127" y="60" font-family="monospace" font-size="11" fill="#FAFAF9">科学</text>
    <text x="127" y="72" font-family="monospace" font-size="9" fill="#E7E5E4">好核</text>
    
    <path d="M 70 80 L 70 95 L 145 95 L 145 80" fill="none" stroke="#D6D3D1" stroke-width="1.5"/>
    <circle cx="107.5" cy="95" r="3" fill="#D6D3D1"/>
    
    <text x="85" y="115" font-family="Arial, sans-serif" font-size="12" fill="#FAFAF9" font-weight="bold">新物种</text>
    <text x="75" y="130" font-family="Arial, sans-serif" font-size="9" fill="#A8A29E">反向模仿 = 流量密码</text>
  </g>
  
  <rect x="0" y="293" width="660" height="7" fill="url(#accentGrad)"/>
</svg>