<svg xmlns="http://www.w3.org/2000/svg" viewBox="0 0 660 300">
  <defs>
    <linearGradient id="bgGrad" x1="0%" y1="0%" x2="0%" y2="100%">
      <stop offset="0%" style="stop-color:#44403C"/>
      <stop offset="100%" style="stop-color:#1C1917"/>
    </linearGradient>
    <linearGradient id="accentGrad" x1="0%" y1="0%" x2="100%" y2="0%">
      <stop offset="0%" style="stop-color:#EA580C"/>
      <stop offset="100%" style="stop-color:#F59E0B"/>
    </linearGradient>
  </defs>
  
  <rect width="660" height="300" fill="url(#bgGrad)"/>
  
  <g opacity="0.06">
    <circle cx="120" cy="45" r="1.5" fill="#D6D3D1"/>
    <circle cx="280" cy="90" r="1.5" fill="#D6D3D1"/>
    <circle cx="450" cy="120" r="1.5" fill="#D6D3D1"/>
    <circle cx="180" cy="180" r="1.5" fill="#D6D3D1"/>
    <circle cx="520" cy="200" r="1.5" fill="#D6D3D1"/>
    <circle cx="90" cy="240" r="1.5" fill="#D6D3D1"/>
    <circle cx="350" cy="260" r="1.5" fill="#D6D3D1"/>
  </g>
  
  <rect x="50" y="60" width="5" height="80" fill="url(#accentGrad)" rx="2.5"/>
  
  <text x="70" y="85" font-family="system-ui, -apple-system, sans-serif" font-size="26" font-weight="bold" fill="#FAFAF9">
    <tspan x="70" dy="0">如何把你的旧手机</tspan>
    <tspan x="70" dy="32">变成 AI 助理的肉身？</tspan>
  </text>
  
  <text x="70" y="155" font-family="system-ui, -apple-system, sans-serif" font-size="16" fill="#A8A29E">
    <tspan x="70" dy="0">别让你的旧手机在抽屉里吃灰。只要 5 分钟，</tspan>
    <tspan x="70" dy="22">它就能变成一个 24 小时在线、能听会说的助理</tspan>
  </text>
  
  <g transform="translate(70, 205)">
    <rect width="90" height="28" rx="14" fill="#57534E" opacity="0.4"/>
    <text x="45" y="19" font-family="system-ui, -apple-system, sans-serif" font-size="13" fill="#D6D3D1" text-anchor="middle">旧手机</text>
  </g>
  
  <g transform="translate(170, 205)">
    <rect width="110" height="28" rx="14" fill="#57534E" opacity="0.4"/>
    <text x="55" y="19" font-family="system-ui, -apple-system, sans-serif" font-size="13" fill="#D6D3D1" text-anchor="middle">物理节点</text>
  </g>
  
  <g transform="translate(290, 205)">
    <rect width="90" height="28" rx="14" fill="#57534E" opacity="0.4"/>
    <text x="45" y="19" font-family="system-ui, -apple-system, sans-serif" font-size="13" fill="#D6D3D1" text-anchor="middle">IoT</text>
  </g>
  
  <g transform="translate(420, 50)">
    <rect x="0" y="0" width="180" height="120" rx="8" fill="none" stroke="#A8A29E" stroke-width="2"/>
    
    <circle cx="90" cy="35" r="18" fill="none" stroke="#EA580C" stroke-width="2.5"/>
    <circle cx="90" cy="35" r="8" fill="#EA580C"/>
    <path d="M 75 50 L 90 35 L 105 50" fill="none" stroke="#EA580C" stroke-width="2.5" stroke-linecap="round" stroke-linejoin="round"/>
    
    <rect x="20" y="70" width="50" height="35" rx="4" fill="none" stroke="#22C55E" stroke-width="2"/>
    <text x="45" y="90" font-family="monospace" font-size="11" fill="#22C55E" text-anchor="middle">Node</text>
    
    <rect x="110" y="70" width="50" height="35" rx="4" fill="none" stroke="#F59E0B" stroke-width="2"/>
    <circle cx="135" cy="82" r="3" fill="#F59E0B"/>
    <circle cx="135" cy="93" r="3" fill="#F59E0B"/>
    
    <path d="M 70 87 L 90 87 M 90 87 L 110 87" stroke="#A8A29E" stroke-width="1.5" marker-end="url(#arrow)"/>
  </g>
  
  <defs>
    <marker id="arrow" markerWidth="10" markerHeight="10" refX="8" refY="3" orient="auto" markerUnits="strokeWidth">
      <path d="M0,0 L0,6 L9,3 z" fill="#A8A29E"/>
    </marker>
  </defs>
  
  <rect x="0" y="293" width="660" height="7" fill="url(#accentGrad)"/>
</svg>