<svg xmlns="http://www.w3.org/2000/svg" viewBox="0 0 660 300">
  <defs>
    <linearGradient id="bgGrad" x1="0%" y1="0%" x2="0%" y2="100%">
      <stop offset="0%" style="stop-color:#44403C"/>
      <stop offset="100%" style="stop-color:#1C1917"/>
    </linearGradient>
    <linearGradient id="accentGrad" x1="0%" y1="0%" x2="100%" y2="0%">
      <stop offset="0%" style="stop-color:#EA580C"/>
      <stop offset="100%" style="stop-color:#F59E0B"/>
    </linearGradient>
  </defs>
  
  <rect width="660" height="300" fill="url(#bgGrad)"/>
  
  <g opacity="0.06">
    <circle cx="80" cy="40" r="1.5" fill="#D6D3D1"/>
    <circle cx="150" cy="80" r="1" fill="#D6D3D1"/>
    <circle cx="200" cy="120" r="1.5" fill="#D6D3D1"/>
    <circle cx="120" cy="180" r="1" fill="#D6D3D1"/>
    <circle cx="280" cy="60" r="1.5" fill="#D6D3D1"/>
    <circle cx="320" cy="200" r="1" fill="#D6D3D1"/>
    <circle cx="180" cy="240" r="1.5" fill="#D6D3D1"/>
    <circle cx="450" cy="90" r="1" fill="#D6D3D1"/>
    <circle cx="520" cy="150" r="1.5" fill="#D6D3D1"/>
    <circle cx="580" cy="200" r="1" fill="#D6D3D1"/>
    <circle cx="490" cy="240" r="1.5" fill="#D6D3D1"/>
  </g>
  
  <rect x="50" y="50" width="5" height="180" fill="url(#accentGrad)" rx="2"/>
  
  <text x="70" y="75" font-family="Arial, sans-serif" font-size="22" font-weight="bold" fill="#FAFAF9">
    如何把你的旧手机
  </text>
  <text x="70" y="102" font-family="Arial, sans-serif" font-size="22" font-weight="bold" fill="#FAFAF9">
    变成 AI 助理的
  </text>
  <text x="70" y="129" font-family="Arial, sans-serif" font-size="22" font-weight="bold" fill="#FAFAF9">
    肉身？
  </text>
  
  <text x="70" y="158" font-family="Arial, sans-serif" font-size="14" fill="#A8A29E">
    别让你的旧手机在抽屉里吃灰
  </text>
  
  <rect x="70" y="180" width="85" height="24" rx="12" fill="#57534E" opacity="0.4"/>
  <text x="82" y="197" font-family="Arial, sans-serif" font-size="12" fill="#D6D3D1">旧手机</text>
  
  <rect x="165" y="180" width="85" height="24" rx="12" fill="#57534E" opacity="0.4"/>
  <text x="177" y="197" font-family="Arial, sans-serif" font-size="12" fill="#D6D3D1">AI 助理</text>
  
  <rect x="260" y="180" width="85" height="24" rx="12" fill="#57534E" opacity="0.4"/>
  <text x="272" y="197" font-family="Arial, sans-serif" font-size="12" fill="#D6D3D1">物联网</text>
  
  <g transform="translate(430, 50)">
    <rect x="20" y="10" width="160" height="100" rx="8" fill="none" stroke="#A8A29E" stroke-width="2"/>
    <circle cx="100" cy="30" r="8" fill="#22C55E"/>
    <rect x="40" y="50" width="120" height="4" rx="2" fill="#57534E"/>
    <rect x="40" y="62" width="100" height="4" rx="2" fill="#57534E"/>
    <rect x="40" y="74" width="110" height="4" rx="2" fill="#57534E"/>
    
    <path d="M 60 120 L 80 140 L 100 125 L 120 145 L 140 130" fill="none" stroke="url(#accentGrad)" stroke-width="2.5"/>
    
    <circle cx="50" cy="25" r="3" fill="#EA580C"/>
    <circle cx="150" cy="25" r="3" fill="#EA580C"/>
    
    <text x="50" y="155" font-family="monospace" font-size="10" fill="#22C55E">Node Active</text>
  </g>
  
  <rect x="0" y="293" width="660" height="7" fill="url(#accentGrad)"/>
</svg>