<svg xmlns="http://www.w3.org/2000/svg" viewBox="0 0 660 300">
  <defs>
    <linearGradient id="bgGrad" x1="0%" y1="0%" x2="0%" y2="100%">
      <stop offset="0%" style="stop-color:#44403C"/>
      <stop offset="100%" style="stop-color:#1C1917"/>
    </linearGradient>
    <linearGradient id="accentGrad" x1="0%" y1="0%" x2="100%" y2="0%">
      <stop offset="0%" style="stop-color:#EA580C"/>
      <stop offset="100%" style="stop-color:#F59E0B"/>
    </linearGradient>
  </defs>
  
  <rect width="660" height="300" fill="url(#bgGrad)"/>
  
  <g opacity="0.06">
    <circle cx="120" cy="45" r="2" fill="#D6D3D1"/>
    <circle cx="280" cy="90" r="1.5" fill="#D6D3D1"/>
    <circle cx="450" cy="60" r="2" fill="#D6D3D1"/>
    <circle cx="180" cy="150" r="1.5" fill="#D6D3D1"/>
    <circle cx="380" cy="180" r="2" fill="#D6D3D1"/>
    <circle cx="520" cy="140" r="1.5" fill="#D6D3D1"/>
    <circle cx="90" cy="220" r="2" fill="#D6D3D1"/>
    <circle cx="340" cy="250" r="1.5" fill="#D6D3D1"/>
  </g>
  
  <rect x="50" y="0" width="5" height="300" fill="url(#accentGrad)"/>
  
  <text x="70" y="80" font-family="system-ui, -apple-system, sans-serif" font-size="22" font-weight="bold" fill="#FAFAF9">
    <tspan x="70" dy="0">如何把你的旧手机变成</tspan>
    <tspan x="70" dy="28">AI 助理的肉身？</tspan>
  </text>
  
  <text x="70" y="155" font-family="system-ui, -apple-system, sans-serif" font-size="13" fill="#A8A29E">
    别让你的旧手机在抽屉里吃灰。只要 5 分钟，它就能变成一个 24 小时在线、能听
  </text>
  
  <g transform="translate(70, 245)">
    <rect width="85" height="24" rx="12" fill="#57534E" opacity="0.4"/>
    <text x="42.5" y="16" font-family="system-ui, -apple-system, sans-serif" font-size="11" fill="#D6D3D1" text-anchor="middle">旧手机改造</text>
  </g>
  
  <g transform="translate(165, 245)">
    <rect width="75" height="24" rx="12" fill="#57534E" opacity="0.4"/>
    <text x="37.5" y="16" font-family="system-ui, -apple-system, sans-serif" font-size="11" fill="#D6D3D1" text-anchor="middle">AI 助理</text>
  </g>
  
  <g transform="translate(250, 245)">
    <rect width="70" height="24" rx="12" fill="#57534E" opacity="0.4"/>
    <text x="35" y="16" font-family="system-ui, -apple-system, sans-serif" font-size="11" fill="#D6D3D1" text-anchor="middle">物联网</text>
  </g>
  
  <g transform="translate(540, 210)" opacity="0.2">
    <rect x="0" y="0" width="50" height="60" rx="8" fill="none" stroke="#EA580C" stroke-width="2"/>
    <circle cx="25" cy="15" r="6" fill="#EA580C"/>
    <rect x="10" y="30" width="30" height="2" rx="1" fill="#EA580C"/>
    <rect x="10" y="38" width="30" height="2" rx="1" fill="#EA580C"/>
    <rect x="10" y="46" width="20" height="2" rx="1" fill="#EA580C"/>
  </g>
  
  <g transform="translate(600, 230)" opacity="0.25">
    <path d="M 0,0 L 8,0 L 8,12 L 4,16 L 0,12 Z" fill="none" stroke="#A8A29E" stroke-width="1.5"/>
    <circle cx="4" cy="5" r="2" fill="#A8A29E"/>
  </g>
  
  <rect x="0" y="293" width="660" height="7" fill="url(#accentGrad)"/>
</svg>