<svg xmlns="http://www.w3.org/2000/svg" viewBox="0 0 660 300">
  <defs>
    <linearGradient id="bgGrad" x1="0%" y1="0%" x2="0%" y2="100%">
      <stop offset="0%" style="stop-color:#78350F"/>
      <stop offset="100%" style="stop-color:#451A03"/>
    </linearGradient>
    <linearGradient id="accentGrad" x1="0%" y1="0%" x2="100%" y2="0%">
      <stop offset="0%" style="stop-color:#F59E0B"/>
      <stop offset="100%" style="stop-color:#D97706"/>
    </linearGradient>
  </defs>
  
  <rect width="660" height="300" fill="url(#bgGrad)"/>
  
  <g opacity="0.06">
    <circle cx="120" cy="45" r="1.5" fill="#D6A456"/>
    <circle cx="280" cy="90" r="1.2" fill="#D6A456"/>
    <circle cx="180" cy="150" r="1.8" fill="#D6A456"/>
    <circle cx="90" cy="200" r="1.3" fill="#D6A456"/>
    <circle cx="320" cy="180" r="1.6" fill="#D6A456"/>
    <circle cx="220" cy="250" r="1.4" fill="#D6A456"/>
    <circle cx="150" cy="100" r="1.1" fill="#D6A456"/>
    <circle cx="260" cy="220" r="1.7" fill="#D6A456"/>
    <circle cx="340" cy="130" r="1.3" fill="#D6A456"/>
    <circle cx="80" cy="270" r="1.5" fill="#D6A456"/>
    <circle cx="480" cy="60" r="1.4" fill="#D6A456"/>
    <circle cx="520" cy="140" r="1.2" fill="#D6A456"/>
    <circle cx="580" cy="200" r="1.6" fill="#D6A456"/>
    <circle cx="440" cy="240" r="1.3" fill="#D6A456"/>
    <circle cx="600" cy="90" r="1.5" fill="#D6A456"/>
  </g>
  
  <rect x="50" y="60" width="5" height="60" fill="url(#accentGrad)" rx="2.5"/>
  
  <text x="70" y="85" font-family="Arial, sans-serif" font-size="26" font-weight="bold" fill="#FEFCE8">
    如何把你的旧手机变成
  </text>
  <text x="70" y="115" font-family="Arial, sans-serif" font-size="26" font-weight="bold" fill="#FEFCE8">
    AI 助理的肉身？
  </text>
  
  <text x="70" y="145" font-family="Arial, sans-serif" font-size="16" fill="#D6A456">
    别让你的旧手机在抽屉里吃灰。只要 5 分钟，
  </text>
  <text x="70" y="165" font-family="Arial, sans-serif" font-size="16" fill="#D6A456">
    它就能变成一个 24 小时在线、能听会说的助理
  </text>
  
  <g transform="translate(70, 190)">
    <rect width="90" height="28" rx="14" fill="#92400E" opacity="0.4"/>
    <text x="45" y="19" font-family="Arial, sans-serif" font-size="13" fill="#FDE68A" text-anchor="middle">旧手机改造</text>
  </g>
  
  <g transform="translate(170, 190)">
    <rect width="75" height="28" rx="14" fill="#92400E" opacity="0.4"/>
    <text x="37.5" y="19" font-family="Arial, sans-serif" font-size="13" fill="#FDE68A" text-anchor="middle">AI 节点</text>
  </g>
  
  <g transform="translate(255, 190)">
    <rect width="60" height="28" rx="14" fill="#92400E" opacity="0.4"/>
    <text x="30" y="19" font-family="Arial, sans-serif" font-size="13" fill="#FDE68A" text-anchor="middle">IoT</text>
  </g>
  
  <g transform="translate(420, 60)">
    <rect x="0" y="0" width="200" height="140" rx="8" fill="none" stroke="#D6A456" stroke-width="2.5"/>
    
    <rect x="60" y="15" width="80" height="110" rx="6" fill="#92400E" opacity="0.3" stroke="#F59E0B" stroke-width="2"/>
    
    <circle cx="100" cy="30" r="3" fill="#22C55E"/>
    
    <rect x="75" y="45" width="50" height="3" rx="1.5" fill="#D6A456" opacity="0.6"/>
    <rect x="75" y="55" width="40" height="3" rx="1.5" fill="#D6A456" opacity="0.6"/>
    <rect x="75" y="65" width="45" height="3" rx="1.5" fill="#D6A456" opacity="0.6"/>
    
    <circle cx="100" cy="90" r="12" fill="none" stroke="#F59E0B" stroke-width="2"/>
    <circle cx="100" cy="90" r="8" fill="none" stroke="#F59E0B" stroke-width="1.5"/>
    <circle cx="100" cy="90" r="3" fill="#F59E0B"/>
    
    <path d="M 20 160 Q 100 145 180 160" fill="none" stroke="#22C55E" stroke-width="2" stroke-dasharray="4,3"/>
    
    <text x="100" y="175" font-family="monospace" font-size="11" fill="#FDE68A" text-anchor="middle">Node Active</text>
    
    <g transform="translate(15, 20)">
      <path d="M 0 0 L 8 5 L 0 10 Z" fill="#F59E0B"/>
    </g>
    
    <g transform="translate(177, 20)">
      <circle cx="0" cy="5" r="2" fill="#22C55E"/>
      <circle cx="0" cy="5" r="4" fill="none" stroke="#22C55E" stroke-width="1" opacity="0.5"/>
    </g>
  </g>
  
  <rect x="0" y="293" width="660" height="7" fill="url(#accentGrad)"/>
</svg>