<svg viewBox="0 0 660 400" xmlns="http://www.w3.org/2000/svg" font-family="-apple-system, 'Segoe UI', sans-serif"><rect width="660" height="400" fill="#FAFAFA" rx="12"/><text x="330" y="36" text-anchor="middle" font-size="15" font-weight="700" fill="#1E293B">自定义 Subagent 协作流程</text><rect x="30" y="60" width="180" height="260" rx="10" fill="white" stroke="#E2E8F0" stroke-width="1.5" filter="url(#shadow)"/><rect x="30" y="60" width="180" height="40" rx="10" fill="#2563EB"/><rect x="30" y="88" width="180" height="12" rx="0" fill="#2563EB"/><text x="120" y="86" text-anchor="middle" font-size="13" font-weight="700" fill="white">@browser_debugger</text><text x="120" y="122" text-anchor="middle" font-size="11" fill="#64748B">model:</text><text x="120" y="138" text-anchor="middle" font-size="11" font-weight="600" fill="#2563EB">gpt-5.3-codex-spark</text><line x1="50" y1="155" x2="190" y2="155" stroke="#E2E8F0" stroke-width="1"/><text x="120" y="174" text-anchor="middle" font-size="11" fill="#64748B">tools:</text><rect x="60" y="182" width="120" height="22" rx="6" fill="#DBEAFE"/><text x="120" y="197" text-anchor="middle" font-size="11" fill="#2563EB">browser, screenshot</text><line x1="50" y1="215" x2="190" y2="215" stroke="#E2E8F0" stroke-width="1"/><text x="120" y="233" text-anchor="middle" font-size="11" fill="#475569" font-weight="600">输出</text><rect x="50" y="242" width="140" height="60" rx="6" fill="#F0F9FF"/><text x="120" y="260" text-anchor="middle" font-size="10" fill="#0369A1">结构化 Bug 报告</text><text x="120" y="276" text-anchor="middle" font-size="10" fill="#0369A1">复现路径 + 错误信息</text><text x="120" y="292" text-anchor="middle" font-size="10" fill="#0369A1">控制台日志 / 截图</text><rect x="240" y="60" width="180" height="260" rx="10" fill="white" stroke="#E2E8F0" stroke-width="1.5" filter="url(#shadow)"/><rect x="240" y="60" width="180" height="40" rx="10" fill="#16A34A"/><rect x="240" y="88" width="180" height="12" rx="0" fill="#16A34A"/><text x="330" y="86" text-anchor="middle" font-size="13" font-weight="700" fill="white">@code_mapper</text><text x="330" y="122" text-anchor="middle" font-size="11" fill="#64748B">model:</text><text x="330" y="138" text-anchor="middle" font-size="11" font-weight="600" fill="#16A34A">gpt-5.4</text><line x1="260" y1="155" x2="400" y2="155" stroke="#E2E8F0" stroke-width="1"/><text x="330" y="174" text-anchor="middle" font-size="11" fill="#64748B">tools:</text><rect x="270" y="182" width="120" height="22" rx="6" fill="#DCFCE7"/><text x="330" y="197" text-anchor="middle" font-size="11" fill="#16A34A">read_file, search</text><line x1="260" y1="215" x2="400" y2="215" stroke="#E2E8F0" stroke-width="1"/><text x="330" y="233" text-anchor="middle" font-size="11" fill="#475569" font-weight="600">输出</text><rect x="260" y="242" width="140" height="60" rx="6" fill="#F0FDF4"/><text x="330" y="260" text-anchor="middle" font-size="10" fill="#15803D">代码位置定位</text><text x="330" y="276" text-anchor="middle" font-size="10" fill="#15803D">文件路径 + 行号</text><text x="330" y="292" text-anchor="middle" font-size="10" fill="#15803D">相关模块关系</text><rect x="450" y="60" width="180" height="260" rx="10" fill="white" stroke="#E2E8F0" stroke-width="1.5" filter="url(#shadow)"/><rect x="450" y="60" width="180" height="40" rx="10" fill="#EA580C"/><rect x="450" y="88" width="180" height="12" rx="0" fill="#EA580C"/><text x="540" y="86" text-anchor="middle" font-size="13" font-weight="700" fill="white">@ui_fixer</text><text x="540" y="122" text-anchor="middle" font-size="11" fill="#64748B">model:</text><text x="540" y="138" text-anchor="middle" font-size="11" font-weight="600" fill="#EA580C">gpt-5.4</text><line x1="470" y1="155" x2="610" y2="155" stroke="#E2E8F0" stroke-width="1"/><text x="540" y="174" text-anchor="middle" font-size="11" fill="#64748B">tools:</text><rect x="480" y="182" width="120" height="22" rx="6" fill="#FFEDD5"/><text x="540" y="197" text-anchor="middle" font-size="11" fill="#EA580C">write_file, run_tests</text><line x1="470" y1="215" x2="610" y2="215" stroke="#E2E8F0" stroke-width="1"/><text x="540" y="233" text-anchor="middle" font-size="11" fill="#475569" font-weight="600">输出</text><rect x="470" y="242" width="140" height="60" rx="6" fill="#FFF7ED"/><text x="540" y="260" text-anchor="middle" font-size="10" fill="#C2410C">最小改动修复</text><text x="540" y="276" text-anchor="middle" font-size="10" fill="#C2410C">Patch / PR</text><text x="540" y="292" text-anchor="middle" font-size="10" fill="#C2410C">测试验证通过</text><defs><marker id="arrow" markerWidth="8" markerHeight="8" refX="6" refY="3" orient="auto"><path d="M0,0 L0,6 L8,3 z" fill="#94A3B8"/></marker><filter id="shadow" x="-5%" y="-5%" width="110%" height="115%"><feDropShadow dx="0" dy="2" stdDeviation="3" flood-color="#CBD5E1" flood-opacity="0.5"/></filter></defs><line x1="211" y1="190" x2="238" y2="190" stroke="#94A3B8" stroke-width="1.5" stroke-dasharray="4,3" marker-end="url(#arrow)"/><line x1="421" y1="190" x2="448" y2="190" stroke="#94A3B8" stroke-width="1.5" stroke-dasharray="4,3" marker-end="url(#arrow)"/><text x="224" y="183" text-anchor="middle" font-size="9" fill="#94A3B8">自动传递</text><text x="434" y="183" text-anchor="middle" font-size="9" fill="#94A3B8">自动传递</text><rect x="140" y="345" width="380" height="32" rx="8" fill="#F1F5F9"/><text x="330" y="365" text-anchor="middle" font-size="11" fill="#475569">Codex 自动按依赖顺序调度，无需手动传递上下文</text></svg>