<svg viewBox="0 0 660 400" xmlns="http://www.w3.org/2000/svg" font-family="-apple-system, 'Segoe UI', sans-serif"><rect width="660" height="400" fill="#FAFAFA" rx="12"/><text x="330" y="36" text-anchor="middle" font-size="16" font-weight="700" fill="#1E293B">Subagents 协作模型</text><rect x="240" y="60" width="180" height="64" rx="10" fill="white" stroke="#E2E8F0" stroke-width="1.5" filter="url(#shadow)"/><text x="330" y="88" text-anchor="middle" font-size="13" font-weight="700" fill="#1E293B">你</text><text x="330" y="108" text-anchor="middle" font-size="11" fill="#64748B">说目标，不拆步骤</text><defs><filter id="shadow" x="-10%" y="-10%" width="120%" height="130%"><feDropShadow dx="0" dy="2" stdDeviation="3" flood-color="#00000018"/></filter></defs><line x1="330" y1="124" x2="330" y2="152" stroke="#94A3B8" stroke-width="1.5" stroke-dasharray="5,3"/><rect x="220" y="152" width="220" height="56" rx="10" fill="#EFF6FF" stroke="#2563EB" stroke-width="1.5"/><text x="330" y="180" text-anchor="middle" font-size="13" font-weight="700" fill="#2563EB">Orchestrator</text><text x="330" y="198" text-anchor="middle" font-size="11" fill="#3B82F6">决定调哪些 Agent、顺序与并行</text><line x1="200" y1="208" x2="120" y2="268" stroke="#94A3B8" stroke-width="1.5" stroke-dasharray="5,3"/><line x1="330" y1="208" x2="330" y2="268" stroke="#94A3B8" stroke-width="1.5" stroke-dasharray="5,3"/><line x1="460" y1="208" x2="540" y2="268" stroke="#94A3B8" stroke-width="1.5" stroke-dasharray="5,3"/><rect x="44" y="268" width="152" height="86" rx="10" fill="white" stroke="#E2E8F0" stroke-width="1.5" filter="url(#shadow)"/><rect x="44" y="268" width="152" height="10" rx="5" fill="#16A34A"/><text x="120" y="298" text-anchor="middle" font-size="13" font-weight="700" fill="#16A34A">explorer</text><text x="120" y="316" text-anchor="middle" font-size="11" fill="#64748B">探索代码库结构</text><text x="120" y="332" text-anchor="middle" font-size="11" fill="#64748B">理解项目架构</text><rect x="254" y="268" width="152" height="86" rx="10" fill="white" stroke="#E2E8F0" stroke-width="1.5" filter="url(#shadow)"/><rect x="254" y="268" width="152" height="10" rx="5" fill="#EA580C"/><text x="330" y="298" text-anchor="middle" font-size="13" font-weight="700" fill="#EA580C">worker</text><text x="330" y="316" text-anchor="middle" font-size="11" fill="#64748B">并行执行批量小任务</text><text x="330" y="332" text-anchor="middle" font-size="11" fill="#64748B">多文件修改 / 重构</text><rect x="464" y="268" width="152" height="86" rx="10" fill="white" stroke="#E2E8F0" stroke-width="1.5" filter="url(#shadow)"/><rect x="464" y="268" width="152" height="10" rx="5" fill="#9333EA"/><text x="540" y="298" text-anchor="middle" font-size="13" font-weight="700" fill="#9333EA">default</text><text x="540" y="316" text-anchor="middle" font-size="11" fill="#64748B">通用串行任务</text><text x="540" y="332" text-anchor="middle" font-size="11" fill="#64748B">单一功能 / 简单修复</text><rect x="180" y="374" width="14" height="14" rx="3" fill="#D97706"/><text x="200" y="385" font-size="11" fill="#64748B">也可自定义 Subagent</text></svg>