<svg viewBox="0 0 660 400" xmlns="http://www.w3.org/2000/svg"><defs><filter id="s" x="-5%" y="-5%" width="110%" height="110%"><feDropShadow dx="0" dy="2" stdDeviation="3" flood-opacity="0.1"/></filter></defs><rect width="660" height="400" fill="#FAFAFA" rx="12"/><text x="330" y="45" font-family="-apple-system, 'Segoe UI', sans-serif" font-size="20" font-weight="bold" fill="#0F172A" text-anchor="middle">AI 代码架构审查指南</text><line x1="220" y1="60" x2="440" y2="60" stroke="#E2E8F0" stroke-width="2"/><g transform="translate(40, 85)"><rect width="160" height="140" rx="12" fill="#FFF" filter="url(#s)" stroke="#2563EB" stroke-width="2"/><text x="80" y="30" font-family="-apple-system, 'Segoe UI', sans-serif" font-size="15" font-weight="bold" fill="#2563EB" text-anchor="middle">01 接口之外</text><line x1="20" y1="42" x2="140" y2="42" stroke="#2563EB" stroke-width="2"/><text x="20" y="65" font-family="-apple-system, 'Segoe UI', sans-serif" font-size="12" fill="#475569">检查是否私自新增方法</text><text x="20" y="85" font-family="-apple-system, 'Segoe UI', sans-serif" font-size="12" fill="#475569">越界则砍掉或补定义</text><circle cx="135" cy="115" r="10" fill="#DBEAFE"/><path d="M131 115 L134 118 L139 112" stroke="#2563EB" stroke-width="1.5" fill="none"/></g><g transform="translate(230, 85)"><rect width="160" height="140" rx="12" fill="#FFF" filter="url(#s)" stroke="#EA580C" stroke-width="2"/><text x="80" y="30" font-family="-apple-system, 'Segoe UI', sans-serif" font-size="15" font-weight="bold" fill="#EA580C" text-anchor="middle">02 依赖方向</text><line x1="20" y1="42" x2="140" y2="42" stroke="#EA580C" stroke-width="2"/><text x="20" y="65" font-family="-apple-system, 'Segoe UI', sans-serif" font-size="12" fill="#475569">检查模块引用是否成环</text><text x="20" y="85" font-family="-apple-system, 'Segoe UI', sans-serif" font-size="12" fill="#475569">成环则立即重构</text><circle cx="135" cy="115" r="10" fill="#FFEDD5"/><path d="M131 115 L134 118 L139 112" stroke="#EA580C" stroke-width="1.5" fill="none"/></g><g transform="translate(420, 85)"><rect width="160" height="140" rx="12" fill="#FFF" filter="url(#s)" stroke="#16A34A" stroke-width="2"/><text x="80" y="30" font-family="-apple-system, 'Segoe UI', sans-serif" font-size="15" font-weight="bold" fill="#16A34A" text-anchor="middle">03 数据职责</text><line x1="20" y1="42" x2="140" y2="42" stroke="#16A34A" stroke-width="2"/><text x="20" y="65" font-family="-apple-system, 'Segoe UI', sans-serif" font-size="12" fill="#475569">检查类/模块职责是否过重</text><text x="20" y="85" font-family="-apple-system, 'Segoe UI', sans-serif" font-size="12" fill="#475569">臃肿则拆分模块</text><circle cx="135" cy="115" r="10" fill="#DCFCE7"/><path d="M131 115 L134 118 L139 112" stroke="#16A34A" stroke-width="1.5" fill="none"/></g><line x1="200" y1="155" x2="460" y2="155" stroke="#CBD5E1" stroke-width="2" stroke-dasharray="6,4"/><g transform="translate(130, 270)"><rect width="400" height="55" rx="12" fill="#9333EA"/><text x="200" y="35" font-family="-apple-system, 'Segoe UI', sans-serif" font-size="15" font-weight="bold" fill="#FFF" text-anchor="middle">底线原则：接口随便 AI 写，架构必须我签字</text></g></svg>