<svg xmlns="http://www.w3.org/2000/svg" viewBox="0 0 660 400"><defs><filter id="s" x="-5%" y="-5%" width="110%" height="110%"><feDropShadow dx="0" dy="2" stdDeviation="4" flood-opacity="0.1"/></filter></defs><rect width="660" height="400" fill="#FAFAFA" rx="12"/><text x="330" y="42" font-family="-apple-system, 'Segoe UI', sans-serif" font-size="20" font-weight="bold" fill="#111827" text-anchor="middle">传统开发 vs AI 辅助开发</text><g transform="translate(30, 70)"><rect width="280" height="220" rx="12" fill="#FFFFFF" stroke="#E5E7EB" filter="url(#s)"/><rect width="280" height="36" rx="12" fill="#2563EB"/><rect y="30" width="280" height="6" fill="#2563EB"/><text x="20" y="25" font-family="-apple-system, 'Segoe UI', sans-serif" font-size="16" font-weight="bold" fill="#FFFFFF">传统编程</text><text x="20" y="75" font-family="-apple-system, 'Segoe UI', sans-serif" font-size="14" fill="#374151">🧠 大脑全程参与编写</text><line x1="20" y1="85" x2="260" y2="85" stroke="#F3F4F6" stroke-width="1"/><text x="20" y="110" font-family="-apple-system, 'Segoe UI', sans-serif" font-size="14" fill="#374151">🔑 代码所有权清晰</text><line x1="20" y1="120" x2="260" y2="120" stroke="#F3F4F6" stroke-width="1"/><text x="20" y="145" font-family="-apple-system, 'Segoe UI', sans-serif" font-size="14" fill="#374151">🐛 调试/维护完全可控</text><line x1="20" y1="155" x2="260" y2="155" stroke="#F3F4F6" stroke-width="1"/><text x="20" y="190" font-family="-apple-system, 'Segoe UI', sans-serif" font-size="14" fill="#6B7280">⏳ 代价：开发速度较慢</text></g><g transform="translate(350, 70)"><rect width="280" height="220" rx="12" fill="#FFFFFF" stroke="#E5E7EB" filter="url(#s)"/><rect width="280" height="36" rx="12" fill="#EA580C"/><rect y="30" width="280" height="6" fill="#EA580C"/><text x="20" y="25" font-family="-apple-system, 'Segoe UI', sans-serif" font-size="16" font-weight="bold" fill="#FFFFFF">AI 辅助编程</text><text x="20" y="75" font-family="-apple-system, 'Segoe UI', sans-serif" font-size="14" fill="#374151">🤖 AI 快速生成代码</text><line x1="20" y1="85" x2="260" y2="85" stroke="#F3F4F6" stroke-width="1"/><text x="20" y="110" font-family="-apple-system, 'Segoe UI', sans-serif" font-size="14" fill="#374151">❓ 代码所有权模糊</text><line x1="20" y1="120" x2="260" y2="120" stroke="#F3F4F6" stroke-width="1"/><text x="20" y="145" font-family="-apple-system, 'Segoe UI', sans-serif" font-size="14" fill="#374151">😰 调试/维护心里没底</text><line x1="20" y1="155" x2="260" y2="155" stroke="#F3F4F6" stroke-width="1"/><text x="20" y="190" font-family="-apple-system, 'Segoe UI', sans-serif" font-size="14" fill="#6B7280">📉 代价：缺乏验收体系</text></g><line x1="310" y1="82" x2="350" y2="82" stroke="#9CA3AF" stroke-width="2" stroke-dasharray="5,5"/><line x1="310" y1="122" x2="350" y2="122" stroke="#9CA3AF" stroke-width="2" stroke-dasharray="5,5"/><line x1="310" y1="157" x2="350" y2="157" stroke="#9CA3AF" stroke-width="2" stroke-dasharray="5,5"/><g transform="translate(130, 310)"><rect width="400" height="60" rx="12" fill="#FEF3C7" stroke="#D97706" stroke-width="2" stroke-dasharray="6,4"/><text x="200" y="28" font-family="-apple-system, 'Segoe UI', sans-serif" font-size="14" font-weight="bold" fill="#92400E" text-anchor="middle">⚠️ 核心痛点：缺少不读代码也能判断能否上线的验收体系</text><text x="200" y="48" font-family="-apple-system, 'Segoe UI', sans-serif" font-size="12" fill="#B45309" text-anchor="middle">传统优势正在流失，需建立自动化验证闭环</text></g></svg>