<svg xmlns="http://www.w3.org/2000/svg" width="660" height="400" viewBox="0 0 660 400" fill="none"><rect width="660" height="400" rx="12" fill="#FAFAFA"/><defs><filter id="shadow" x="0" y="0" width="660" height="400" filterUnits="userSpaceOnUse"><feDropShadow dx="0" dy="2" stdDeviation="6" flood-color="#000000" flood-opacity="0.10"/></filter></defs><text x="330" y="38" text-anchor="middle" font-family="-apple-system, 'Segoe UI', sans-serif" font-size="22" font-weight="700" fill="#111827">怎么堵：先分层，再分权</text><text x="330" y="62" text-anchor="middle" font-family="-apple-system, 'Segoe UI', sans-serif" font-size="13" fill="#6B7280">把输入和动作拆开管理，模型只负责提议</text><rect x="40" y="95" width="160" height="90" rx="12" fill="#FFFFFF" filter="url(#shadow)"/><rect x="250" y="95" width="160" height="90" rx="12" fill="#FFFFFF" filter="url(#shadow)"/><rect x="460" y="95" width="160" height="90" rx="12" fill="#FFFFFF" filter="url(#shadow)"/><line x1="200" y1="140" x2="250" y2="140" stroke="#2563EB" stroke-width="2" stroke-dasharray="6 6"/><line x1="410" y1="140" x2="460" y2="140" stroke="#2563EB" stroke-width="2" stroke-dasharray="6 6"/><text x="120" y="126" text-anchor="middle" font-family="-apple-system, 'Segoe UI', sans-serif" font-size="18" font-weight="700" fill="#2563EB">可信指令</text><text x="120" y="150" text-anchor="middle" font-family="-apple-system, 'Segoe UI', sans-serif" font-size="12" fill="#374151">系统规则</text><text x="120" y="168" text-anchor="middle" font-family="-apple-system, 'Segoe UI', sans-serif" font-size="12" fill="#374151">开发者消息</text><text x="330" y="126" text-anchor="middle" font-family="-apple-system, 'Segoe UI', sans-serif" font-size="18" font-weight="700" fill="#EA580C">不可信内容</text><text x="330" y="150" text-anchor="middle" font-family="-apple-system, 'Segoe UI', sans-serif" font-size="12" fill="#374151">用户输入</text><text x="330" y="168" text-anchor="middle" font-family="-apple-system, 'Segoe UI', sans-serif" font-size="12" fill="#374151">网页 / 文档 / 搜索</text><text x="540" y="126" text-anchor="middle" font-family="-apple-system, 'Segoe UI', sans-serif" font-size="18" font-weight="700" fill="#9333EA">半可信结果</text><text x="540" y="150" text-anchor="middle" font-family="-apple-system, 'Segoe UI', sans-serif" font-size="12" fill="#374151">工具返回值</text><text x="540" y="168" text-anchor="middle" font-family="-apple-system, 'Segoe UI', sans-serif" font-size="12" fill="#374151">结构化 API 数据</text><rect x="64" y="236" width="532" height="108" rx="12" fill="#FFFFFF" filter="url(#shadow)"/><text x="330" y="260" text-anchor="middle" font-family="-apple-system, 'Segoe UI', sans-serif" font-size="18" font-weight="700" fill="#111827">动作分级</text><line x1="145" y1="270" x2="515" y2="270" stroke="#D1D5DB" stroke-width="2" stroke-dasharray="6 6"/><rect x="82" y="286" width="110" height="34" rx="10" fill="#DBEAFE"/><rect x="210" y="286" width="110" height="34" rx="10" fill="#FEF3C7"/><rect x="338" y="286" width="110" height="34" rx="10" fill="#FEE2E2"/><rect x="466" y="286" width="110" height="34" rx="10" fill="#E9D5FF"/><text x="137" y="308" text-anchor="middle" font-family="-apple-system, 'Segoe UI', sans-serif" font-size="13" font-weight="700" fill="#2563EB">只读</text><text x="265" y="308" text-anchor="middle" font-family="-apple-system, 'Segoe UI', sans-serif" font-size="13" font-weight="700" fill="#D97706">低风险写入</text><text x="393" y="308" text-anchor="middle" font-family="-apple-system, 'Segoe UI', sans-serif" font-size="13" font-weight="700" fill="#DC2626">高风险写入</text><text x="521" y="308" text-anchor="middle" font-family="-apple-system, 'Segoe UI', sans-serif" font-size="13" font-weight="700" fill="#9333EA">禁止触发</text><rect x="222" y="356" width="216" height="24" rx="8" fill="#16A34A"/><text x="330" y="373" text-anchor="middle" font-family="-apple-system, 'Segoe UI', sans-serif" font-size="12" font-weight="700" fill="#FFFFFF">模型只提议，规则或人工执行</text><path d="M330 185 V220" stroke="#16A34A" stroke-width="2" stroke-dasharray="6 6"/><circle cx="330" cy="220" r="5" fill="#16A34A"/></svg>