<svg viewBox="0 0 660 400" xmlns="http://www.w3.org/2000/svg"><rect width="660" height="400" rx="12" fill="#FAFAFA"/><text x="330" y="45" text-anchor="middle" font-family="-apple-system, Segoe UI, sans-serif" font-size="22" font-weight="bold" fill="#1F2937">AI 硬件部署三大避坑准则</text><rect x="40" y="80" width="180" height="240" rx="10" fill="#FFFFFF" stroke="#E5E7EB" stroke-width="1"/><path d="M130 110 L130 150 M110 130 L150 130" stroke="#2563EB" stroke-width="3" stroke-linecap="round"/><circle cx="130" cy="130" r="25" fill="none" stroke="#2563EB" stroke-width="2"/><text x="130" y="185" text-anchor="middle" font-family="-apple-system, Segoe UI, sans-serif" font-size="18" font-weight="bold" fill="#2563EB">带宽 &gt; 参数</text><text x="130" y="215" text-anchor="middle" font-family="-apple-system, Segoe UI, sans-serif" font-size="14" fill="#4B5563">优先保证推理速度</text><rect x="65" y="240" width="130" height="30" rx="15" fill="#DBEAFE"/><text x="130" y="260" text-anchor="middle" font-family="-apple-system, Segoe UI, sans-serif" font-size="13" font-weight="bold" fill="#1E40AF">15-20 tokens/s</text><rect x="240" y="80" width="180" height="240" rx="10" fill="#FFFFFF" stroke="#E5E7EB" stroke-width="1"/><circle cx="330" cy="130" r="25" fill="none" stroke="#EA580C" stroke-width="2"/><path d="M320 130 L340 130" stroke="#EA580C" stroke-width="3"/><text x="330" y="185" text-anchor="middle" font-family="-apple-system, Segoe UI, sans-serif" font-size="18" font-weight="bold" fill="#EA580C">拒绝极度压缩</text><text x="330" y="215" text-anchor="middle" font-family="-apple-system, Segoe UI, sans-serif" font-size="14" fill="#4B5563">防止逻辑碎裂</text><rect x="265" y="240" width="130" height="30" rx="15" fill="#FFEDD5"/><text x="330" y="260" text-anchor="middle" font-family="-apple-system, Segoe UI, sans-serif" font-size="13" font-weight="bold" fill="#9A3412">权重 ≥ 4-bit</text><rect x="440" y="80" width="180" height="240" rx="10" fill="#FFFFFF" stroke="#E5E7EB" stroke-width="1"/><path d="M510 110 L550 110 L530 150 Z" fill="none" stroke="#16A34A" stroke-width="2"/><text x="530" y="185" text-anchor="middle" font-family="-apple-system, Segoe UI, sans-serif" font-size="18" font-weight="bold" fill="#16A34A">系统 &gt; 模型</text><text x="530" y="215" text-anchor="middle" font-family="-apple-system, Segoe UI, sans-serif" font-size="14" fill="#4B5563">深耕 RAG 工具链</text><rect x="465" y="240" width="130" height="30" rx="15" fill="#DCFCE7"/><text x="530" y="260" text-anchor="middle" font-family="-apple-system, Segoe UI, sans-serif" font-size="13" font-weight="bold" fill="#166534">业务场景调优</text><text x="330" y="365" text-anchor="middle" font-family="-apple-system, Segoe UI, sans-serif" font-size="14" font-style="italic" fill="#6B7280">“软硬一体”的轻量化部署方案溢价更高</text></svg>