<svg xmlns="http://www.w3.org/2000/svg" viewBox="0 0 660 400"><defs><filter id="shadow" x="-5%" y="-5%" width="110%" height="110%"><feDropShadow dx="0" dy="2" stdDeviation="4" flood-opacity="0.08"/></filter><marker id="arrow" markerWidth="8" markerHeight="6" refX="7" refY="3" orient="auto"><path d="M0,0 L8,3 L0,6 Z" fill="#9CA3AF"/></marker></defs><rect width="660" height="400" fill="#FAFAFA" rx="12"/><text x="330" y="36" font-family="-apple-system, 'Segoe UI', sans-serif" font-size="18" font-weight="600" fill="#111827" text-anchor="middle">对话式 AI vs 自动化工作流</text><rect x="30" y="56" width="260" height="196" rx="12" fill="#fff" filter="url(#shadow)" stroke="#e5e7eb"/><rect x="30" y="56" width="260" height="32" rx="12" fill="#2563eb"/><text x="160" y="77" font-family="-apple-system, 'Segoe UI', sans-serif" font-size="14" font-weight="600" fill="#fff" text-anchor="middle">传统对话式 AI</text><circle cx="50" cy="108" r="4" fill="#ea580c"/><text x="62" y="112" font-family="-apple-system, 'Segoe UI', sans-serif" font-size="13" fill="#374151">触发：手动打开 App / 搜索</text><circle cx="50" cy="132" r="4" fill="#ea580c"/><text x="62" y="136" font-family="-apple-system, 'Segoe UI', sans-serif" font-size="13" fill="#374151">配置：临时手写 Prompt</text><circle cx="50" cy="156" r="4" fill="#ea580c"/><text x="62" y="160" font-family="-apple-system, 'Segoe UI', sans-serif" font-size="13" fill="#374151">结果：单次对话，难闭环</text><circle cx="50" cy="180" r="4" fill="#ea580c"/><text x="62" y="184" font-family="-apple-system, 'Segoe UI', sans-serif" font-size="13" fill="#374151">痛点：易遗忘 · 不可复用</text><rect x="370" y="56" width="260" height="196" rx="12" fill="#fff" filter="url(#shadow)" stroke="#e5e7eb"/><rect x="370" y="56" width="260" height="32" rx="12" fill="#16a34a"/><text x="500" y="77" font-family="-apple-system, 'Segoe UI', sans-serif" font-size="14" font-weight="600" fill="#fff" text-anchor="middle">自动化工作流</text><circle cx="390" cy="108" r="4" fill="#9333ea"/><text x="402" y="112" font-family="-apple-system, 'Segoe UI', sans-serif" font-size="13" fill="#374151">触发：定时任务 / 邮箱规则</text><circle cx="390" cy="132" r="4" fill="#9333ea"/><text x="402" y="136" font-family="-apple-system, 'Segoe UI', sans-serif" font-size="13" fill="#374151">配置：持久化 SOP 模板</text><circle cx="390" cy="156" r="4" fill="#9333ea"/><text x="402" y="160" font-family="-apple-system, 'Segoe UI', sans-serif" font-size="13" fill="#374151">结果：自动执行，Run 可追溯</text><circle cx="390" cy="180" r="4" fill="#9333ea"/><text x="402" y="184" font-family="-apple-system, 'Segoe UI', sans-serif" font-size="13" fill="#374151">优势：无人值守 · 长期闭环</text><line x1="295" y1="150" x2="360" y2="150" stroke="#9ca3af" stroke-width="2" stroke-dasharray="6,4" marker-end="url(#arrow)"/><text x="327" y="140" font-family="-apple-system, 'Segoe UI', sans-serif" font-size="11" fill="#6b7280" text-anchor="middle">升级路径</text><text x="330" y="290" font-family="-apple-system, 'Segoe UI', sans-serif" font-size="14" font-weight="500" fill="#4b5563" text-anchor="middle">核心转变：AI 从“随叫随到”变为“按表敲门”</text></svg>