<svg viewBox="0 0 660 400" xmlns="http://www.w3.org/2000/svg"><rect width="660" height="400" rx="12" fill="#FAFAFA"/><text x="330" y="38" text-anchor="middle" font-family="-apple-system, 'Segoe UI', sans-serif" font-size="20" font-weight="bold" fill="#1E293B">两种 Grok 使用模式的投入产出对比</text><line x1="60" y1="58" x2="600" y2="58" stroke="#E2E8F0" stroke-width="1.5"/><rect x="40" y="80" width="270" height="280" rx="10" fill="#FFFFFF" filter="url(#shadow)"/><rect x="40" y="80" width="270" height="44" rx="10" fill="#F1F5F9"/><text x="175" y="107" text-anchor="middle" font-family="-apple-system, 'Segoe UI', sans-serif" font-size="15" font-weight="bold" fill="#475569">🗨️ 聊天模式</text><text x="68" y="148" font-family="-apple-system, 'Segoe UI', sans-serif" font-size="13" fill="#334155">每次手动输入 Prompt</text><circle cx="55" cy="143" r="3" fill="#EA580C"/><text x="68" y="175" font-family="-apple-system, 'Segoe UI', sans-serif" font-size="13" fill="#334155">即时返回单次结果</text><circle cx="55" cy="170" r="3" fill="#EA580C"/><text x="68" y="202" font-family="-apple-system, 'Segoe UI', sans-serif" font-size="13" fill="#334155">注意力碎片化</text><circle cx="55" cy="197" r="3" fill="#EA580C"/><text x="68" y="229" font-family="-apple-system, 'Segoe UI', sans-serif" font-size="13" fill="#334155">难以形成产出节奏</text><circle cx="55" cy="224" r="3" fill="#EA580C"/><text x="68" y="256" font-family="-apple-system, 'Segoe UI', sans-serif" font-size="13" fill="#334155">重复劳动频繁</text><circle cx="55" cy="251" r="3" fill="#EA580C"/><rect x="175" y="300" width="110" height="36" rx="18" fill="#FEF2F2" stroke="#FCA5A5" stroke-width="1"/><text x="230" y="323" text-anchor="middle" font-family="-apple-system, 'Segoe UI', sans-serif" font-size="12" font-weight="bold" fill="#DC2626">持续投入注意力</text><rect x="350" y="80" width="270" height="280" rx="10" fill="#FFFFFF" filter="url(#shadow)"/><rect x="350" y="80" width="270" height="44" rx="10" fill="#EFF6FF"/><text x="485" y="107" text-anchor="middle" font-family="-apple-system, 'Segoe UI', sans-serif" font-size="15" font-weight="bold" fill="#1E40AF">⚙️ 自动化模式</text><text x="378" y="148" font-family="-apple-system, 'Segoe UI', sans-serif" font-size="13" fill="#334155">一次写好任务说明</text><circle cx="365" cy="143" r="3" fill="#16A34A"/><text x="378" y="175" font-family="-apple-system, 'Segoe UI', sans-serif" font-size="13" fill="#334155">定时/邮件自动触发</text><circle cx="365" cy="170" r="3" fill="#16A34A"/><text x="378" y="202" font-family="-apple-system, 'Segoe UI', sans-serif" font-size="13" fill="#334155">后台持续执行</text><circle cx="365" cy="197" r="3" fill="#16A34A"/><text x="378" y="229" font-family="-apple-system, 'Segoe UI', sans-serif" font-size="13" fill="#334155">结果固定格式汇报</text><circle cx="365" cy="224" r="3" fill="#16A34A"/><text x="378" y="256" font-family="-apple-system, 'Segoe UI', sans-serif" font-size="13" fill="#334155">仅在关键时刻介入</text><circle cx="365" cy="251" r="3" fill="#16A34A"/><rect x="485" y="300" width="110" height="36" rx="18" fill="#F0FDF4" stroke="#86EFAC" stroke-width="1"/><text x="540" y="323" text-anchor="middle" font-family="-apple-system, 'Segoe UI', sans-serif" font-size="12" font-weight="bold" fill="#16A34A">释放核心注意力</text><line x1="310" y1="220" x2="350" y2="220" stroke="#94A3B8" stroke-width="1.5" stroke-dasharray="5,4"/><polygon points="348,214 358,220 348,226" fill="#94A3B8"/><defs><filter id="shadow" x="-4%" y="-4%" width="108%" height="112%"><feDropShadow dx="0" dy="2" stdDeviation="3" flood-color="#0F172A" flood-opacity="0.06"/></filter></defs></svg>