<svg xmlns="http://www.w3.org/2000/svg" viewBox="0 0 660 400"><rect width="660" height="400" rx="12" fill="#FAFAFA"/><defs><filter id="shadow" x="-20%" y="-20%" width="140%" height="140%"><feDropShadow dx="0" dy="3" stdDeviation="6" flood-color="#000000" flood-opacity="0.08"/></filter></defs><g font-family="-apple-system, 'Segoe UI', sans-serif"><text x="330" y="34" text-anchor="middle" font-size="22" font-weight="700" fill="#0F172A">给工具加边界</text><text x="330" y="56" text-anchor="middle" font-size="13" fill="#475569">最小权限、隔离环境、完整日志</text><line x1="240" y1="172" x2="206" y2="113" stroke="#94A3B8" stroke-width="2" stroke-dasharray="6 6"/><line x1="420" y1="172" x2="454" y2="113" stroke="#94A3B8" stroke-width="2" stroke-dasharray="6 6"/><line x1="240" y1="198" x2="206" y2="213" stroke="#94A3B8" stroke-width="2" stroke-dasharray="6 6"/><line x1="420" y1="198" x2="454" y2="213" stroke="#94A3B8" stroke-width="2" stroke-dasharray="6 6"/><line x1="330" y1="242" x2="330" y2="290" stroke="#94A3B8" stroke-width="2" stroke-dasharray="6 6"/><g filter="url(#shadow)"><rect x="36" y="78" width="170" height="70" rx="16" fill="#FFFFFF"/><rect x="36" y="78" width="170" height="6" rx="16" fill="#2563EB"/><circle cx="60" cy="107" r="9" fill="#DBEAFE"/><text x="78" y="100" font-size="16" font-weight="700" fill="#1D4ED8">单工具单权限</text><text x="78" y="122" font-size="12" fill="#64748B">不共用超级账号</text></g><g filter="url(#shadow)"><rect x="454" y="78" width="170" height="70" rx="16" fill="#FFFFFF"/><rect x="454" y="78" width="170" height="6" rx="16" fill="#EA580C"/><circle cx="478" cy="107" r="9" fill="#FFEDD5"/><text x="496" y="100" font-size="16" font-weight="700" fill="#C2410C">读写拆分</text><text x="496" y="122" font-size="12" fill="#64748B">只读 / 写入分开</text></g><g filter="url(#shadow)"><rect x="36" y="178" width="170" height="70" rx="16" fill="#FFFFFF"/><rect x="36" y="178" width="170" height="6" rx="16" fill="#16A34A"/><circle cx="60" cy="207" r="9" fill="#DCFCE7"/><text x="78" y="200" font-size="16" font-weight="700" fill="#15803D">环境隔离</text><text x="78" y="222" font-size="12" fill="#64748B">测试 / 正式分开</text></g><g filter="url(#shadow)"><rect x="454" y="178" width="170" height="70" rx="16" fill="#FFFFFF"/><rect x="454" y="178" width="170" height="6" rx="16" fill="#9333EA"/><circle cx="478" cy="207" r="9" fill="#F3E8FF"/><text x="496" y="200" font-size="16" font-weight="700" fill="#7E22CE">高风险接口</text><text x="496" y="222" font-size="12" fill="#64748B">独立 allowlist</text></g><g filter="url(#shadow)"><rect x="190" y="290" width="280" height="72" rx="16" fill="#FFFFFF"/><rect x="190" y="290" width="280" height="6" rx="16" fill="#D97706"/><circle cx="218" cy="320" r="9" fill="#FEF3C7"/><text x="236" y="313" font-size="16" font-weight="700" fill="#B45309">全链路日志</text><text x="236" y="335" font-size="12" fill="#64748B">工具调用前后都记录，便于审计追踪</text></g><g filter="url(#shadow)"><rect x="240" y="146" width="180" height="92" rx="18" fill="#FFFFFF"/><rect x="240" y="146" width="180" height="8" rx="18" fill="#2563EB"/><circle cx="330" cy="182" r="24" fill="#DBEAFE"/><text x="330" y="188" text-anchor="middle" font-size="14" font-weight="700" fill="#1D4ED8">Agent</text><text x="330" y="214" text-anchor="middle" font-size="15" font-weight="700" fill="#0F172A">工具层边界</text></g></g></svg>