<svg viewBox="0 0 660 400" xmlns="http://www.w3.org/2000/svg" font-family="-apple-system, 'Segoe UI', sans-serif"><rect width="660" height="400" fill="#FAFAFA" rx="12"/><text x="330" y="36" text-anchor="middle" font-size="15" font-weight="700" fill="#1E293B">Qwen 3.5 Chat Template 三大问题</text><line x1="80" x2="580" y1="50" y2="50" stroke="#E2E8F0" stroke-width="1"/><rect x="30" y="64" width="185" height="44" rx="8" fill="#EFF6FF" stroke="#2563EB" stroke-width="1.5"/><text x="122" y="81" text-anchor="middle" font-size="11" font-weight="700" fill="#2563EB">问题一</text><text x="122" y="98" text-anchor="middle" font-size="11" fill="#1E293B">工具调用死循环</text><rect x="237" y="64" width="185" height="44" rx="8" fill="#FFF7ED" stroke="#EA580C" stroke-width="1.5"/><text x="329" y="81" text-anchor="middle" font-size="11" font-weight="700" fill="#EA580C">问题二</text><text x="329" y="98" text-anchor="middle" font-size="11" fill="#1E293B">并行调用乱序</text><rect x="444" y="64" width="185" height="44" rx="8" fill="#F0FDF4" stroke="#16A34A" stroke-width="1.5"/><text x="536" y="81" text-anchor="middle" font-size="11" font-weight="700" fill="#16A34A">问题三</text><text x="536" y="98" text-anchor="middle" font-size="11" fill="#1E293B">流式输出截断</text><rect x="30" y="128" width="185" height="110" rx="8" fill="#FFFFFF" stroke="#CBD5E1" stroke-width="1"/><text x="122" y="148" text-anchor="middle" font-size="10" fill="#475569">调用工具</text><line x1="122" y1="152" x2="122" y2="164" stroke="#2563EB" stroke-width="1.5" stroke-dasharray="4,2"/><text x="122" y="174" text-anchor="middle" font-size="10" fill="#475569">获得结果</text><line x1="122" y1="178" x2="122" y2="190" stroke="#2563EB" stroke-width="1.5" stroke-dasharray="4,2"/><text x="122" y="200" text-anchor="middle" font-size="10" fill="#DC2626">再次调用 &#x2194;</text><line x1="122" y1="204" x2="122" y2="216" stroke="#2563EB" stroke-width="1.5" stroke-dasharray="4,2"/><text x="122" y="226" text-anchor="middle" font-size="10" fill="#DC2626">无限循环...</text><rect x="237" y="128" width="185" height="110" rx="8" fill="#FFFFFF" stroke="#CBD5E1" stroke-width="1"/><text x="329" y="150" text-anchor="middle" font-size="10" fill="#475569">发送顺序</text><rect x="257" y="158" width="38" height="20" rx="4" fill="#DBEAFE"/><text x="276" y="172" text-anchor="middle" font-size="10" fill="#2563EB">A</text><rect x="301" y="158" width="38" height="20" rx="4" fill="#FEF3C7"/><text x="320" y="172" text-anchor="middle" font-size="10" fill="#D97706">B</text><rect x="345" y="158" width="38" height="20" rx="4" fill="#DCFCE7"/><text x="364" y="172" text-anchor="middle" font-size="10" fill="#16A34A">C</text><text x="329" y="200" text-anchor="middle" font-size="10" fill="#DC2626">返回乱序</text><rect x="257" y="208" width="38" height="20" rx="4" fill="#DCFCE7"/><text x="276" y="222" text-anchor="middle" font-size="10" fill="#16A34A">C</text><rect x="301" y="208" width="38" height="20" rx="4" fill="#DBEAFE"/><text x="320" y="222" text-anchor="middle" font-size="10" fill="#2563EB">A</text><rect x="345" y="208" width="38" height="20" rx="4" fill="#FEF3C7"/><text x="364" y="222" text-anchor="middle" font-size="10" fill="#D97706">B</text><rect x="444" y="128" width="185" height="110" rx="8" fill="#FFFFFF" stroke="#CBD5E1" stroke-width="1"/><text x="536" y="150" text-anchor="middle" font-size="10" fill="#475569">流式生成中...</text><rect x="460" y="158" width="144" height="18" rx="3" fill="#DCFCE7"/><text x="532" y="171" text-anchor="middle" font-size="9" fill="#15803D">def hello(): print("hel</text><rect x="460" y="180" width="80" height="18" rx="3" fill="#FEE2E2"/><text x="500" y="193" text-anchor="middle" font-size="9" fill="#DC2626">lo") [STOP]</text><text x="536" y="218" text-anchor="middle" font-size="10" fill="#DC2626">提前截断，代码不完整</text><line x1="122" y1="256" x2="122" y2="276" stroke="#2563EB" stroke-width="2" stroke-dasharray="5,3"/><line x1="329" y1="256" x2="329" y2="276" stroke="#EA580C" stroke-width="2" stroke-dasharray="5,3"/><line x1="536" y1="256" x2="536" y2="276" stroke="#16A34A" stroke-width="2" stroke-dasharray="5,3"/><rect x="30" y="276" width="185" height="40" rx="8" fill="#EFF6FF" stroke="#2563EB" stroke-width="1.5"/><text x="122" y="293" text-anchor="middle" font-size="10" fill="#1D4ED8">修复：增加明确</text><text x="122" y="308" text-anchor="middle" font-size="10" fill="#1D4ED8">停止信号判断</text><rect x="237" y="276" width="185" height="40" rx="8" fill="#FFF7ED" stroke="#EA580C" stroke-width="1.5"/><text x="329" y="293" text-anchor="middle" font-size="10" fill="#C2410C">修复：重写并行调用</text><text x="329" y="308" text-anchor="middle" font-size="10" fill="#C2410C">解析逻辑，保序</text><rect x="444" y="276" width="185" height="40" rx="8" fill="#F0FDF4" stroke="#16A34A" stroke-width="1.5"/><text x="536" y="293" text-anchor="middle" font-size="10" fill="#15803D">修复：调整流式停止</text><text x="536" y="308" text-anchor="middle" font-size="10" fill="#15803D">判断，避免误触发</text><rect x="160" y="332" width="340" height="44" rx="8" fill="#F8FAFC" stroke="#9333EA" stroke-width="1.5"/><text x="330" y="350" text-anchor="middle" font-size="11" font-weight="700" fill="#9333EA">根本原因</text><text x="330" y="368" text-anchor="middle" font-size="10" fill="#475569">官方 Chat Template 停止条件与顺序逻辑存在缺陷</text></svg>