<svg viewBox="0 0 660 400" xmlns="http://www.w3.org/2000/svg" font-family="-apple-system, 'Segoe UI', sans-serif"><rect width="660" height="400" rx="12" fill="#FAFAFA"/><text x="330" y="38" text-anchor="middle" font-size="16" font-weight="bold" fill="#1E293B">修复版 Chat Template 替换流程</text><rect x="220" y="58" width="220" height="48" rx="10" fill="#2563EB" stroke="none"/><text x="330" y="87" text-anchor="middle" font-size="14" font-weight="bold" fill="#fff">Step 1: 下载修复版 Template</text><line x1="330" y1="106" x2="330" y2="130" stroke="#94A3B8" stroke-width="2" stroke-dasharray="5,4"/><polygon points="325,128 335,128 330,136" fill="#94A3B8"/><rect x="180" y="138" width="300" height="40" rx="8" fill="#fff" stroke="#CBD5E1" stroke-width="1.5"/><text x="330" y="163" text-anchor="middle" font-size="13" fill="#475569">从 GitHub 下载 .jinja 文件(几 KB)</text><line x1="330" y1="178" x2="330" y2="202" stroke="#94A3B8" stroke-width="2" stroke-dasharray="5,4"/><polygon points="325,200 335,200 330,208" fill="#94A3B8"/><rect x="220" y="210" width="220" height="48" rx="10" fill="#EA580C" stroke="none"/><text x="330" y="239" text-anchor="middle" font-size="14" font-weight="bold" fill="#fff">Step 2: 替换模型配置</text><line x1="220" y1="258" x2="140" y2="282" stroke="#94A3B8" stroke-width="1.5" stroke-dasharray="5,4"/><line x1="440" y1="258" x2="520" y2="282" stroke="#94A3B8" stroke-width="1.5" stroke-dasharray="5,4"/><rect x="30" y="282" width="220" height="52" rx="8" fill="#fff" stroke="#CBD5E1" stroke-width="1.5"/><text x="140" y="303" text-anchor="middle" font-size="12" font-weight="bold" fill="#2563EB">llama.cpp</text><text x="140" y="322" text-anchor="middle" font-size="11" fill="#475569">替换 chat_template.jinja 文件</text><rect x="410" y="282" width="220" height="52" rx="8" fill="#fff" stroke="#CBD5E1" stroke-width="1.5"/><text x="520" y="303" text-anchor="middle" font-size="12" font-weight="bold" fill="#EA580C">Ollama</text><text x="520" y="322" text-anchor="middle" font-size="11" fill="#475569">在 Modelfile 中指定 TEMPLATE</text><line x1="140" y1="334" x2="240" y2="356" stroke="#94A3B8" stroke-width="1.5" stroke-dasharray="5,4"/><line x1="520" y1="334" x2="420" y2="356" stroke="#94A3B8" stroke-width="1.5" stroke-dasharray="5,4"/><rect x="220" y="352" width="220" height="40" rx="10" fill="#16A34A" stroke="none"/><text x="330" y="377" text-anchor="middle" font-size="13" font-weight="bold" fill="#fff">Step 3: 重新加载 + 验证工具调用</text></svg>