<svg viewBox="0 0 660 400" xmlns="http://www.w3.org/2000/svg" style="background:#FAFAFA;" font-family="-apple-system, 'Segoe UI', sans-serif"><rect width="660" height="400" fill="#FAFAFA" rx="12"/><text x="330" y="40" text-anchor="middle" font-size="16" font-weight="700" fill="#1E293B">AI Coding Agent 能力跃迁</text><line x1="80" y1="320" x2="580" y2="320" stroke="#CBD5E1" stroke-width="2"/><line x1="80" y1="320" x2="80" y2="100" stroke="#CBD5E1" stroke-width="2"/><text x="70" y="325" text-anchor="end" font-size="11" fill="#64748B">低</text><text x="70" y="160" text-anchor="end" font-size="11" fill="#64748B">高</text><text x="70" y="240" text-anchor="end" font-size="11" fill="#64748B">中</text><polyline points="80,300 200,290 300,280 360,270 380,160 480,130 580,110" fill="none" stroke="#2563EB" stroke-width="3" stroke-linejoin="round"/><circle cx="380" cy="160" r="7" fill="#EA580C"/><line x1="380" y1="160" x2="380" y2="320" stroke="#EA580C" stroke-width="1.5" stroke-dasharray="5,4"/><text x="380" y="338" text-anchor="middle" font-size="12" font-weight="600" fill="#EA580C">2025.12</text><text x="380" y="352" text-anchor="middle" font-size="11" fill="#EA580C">临界点</text><rect x="200" y="170" width="130" height="52" rx="8" fill="#FFF" stroke="#E2E8F0" stroke-width="1.5" filter="url(#sh)"/><text x="265" y="191" text-anchor="middle" font-size="12" font-weight="600" fill="#64748B">临界点之前</text><text x="265" y="208" text-anchor="middle" font-size="11" fill="#94A3B8">理解需求困难</text><text x="265" y="221" text-anchor="middle" font-size="11" fill="#94A3B8">执行工具角色</text><rect x="430" y="100" width="130" height="52" rx="8" fill="#EFF6FF" stroke="#2563EB" stroke-width="1.5"/><text x="495" y="121" text-anchor="middle" font-size="12" font-weight="600" fill="#2563EB">临界点之后</text><text x="495" y="138" text-anchor="middle" font-size="11" fill="#1D4ED8">自主规划能力</text><text x="495" y="151" text-anchor="middle" font-size="11" fill="#1D4ED8">协作伙伴角色</text><rect x="240" y="360" width="14" height="4" rx="2" fill="#2563EB"/><text x="260" y="367" font-size="11" fill="#64748B">模型推理能力</text><defs><filter id="sh" x="-10%" y="-10%" width="120%" height="130%"><feDropShadow dx="0" dy="2" stdDeviation="3" flood-color="#00000018"/></filter></defs></svg>