<svg xmlns="http://www.w3.org/2000/svg" viewBox="0 0 660 460" font-family="-apple-system, 'Segoe UI', sans-serif"><defs><filter id="shadow"><feDropShadow dx="0" dy="2" stdDeviation="3" flood-opacity="0.1"/></filter></defs><rect width="660" height="460" fill="#FAFAFA" rx="12"/><text x="330" y="36" text-anchor="middle" font-size="16" font-weight="700" fill="#1a1a1a">AutoClaw vs VPS 部署对比</text><rect x="60" y="80" width="250" height="320" rx="12" fill="white" stroke="#2563EB" stroke-width="2" filter="url(#shadow)"/><text x="185" y="110" text-anchor="middle" font-size="15" font-weight="700" fill="#2563EB">AutoClaw (桌面版)</text><text x="80" y="145" font-size="12" fill="#4b5563">✓ 一键安装,零门槛</text><text x="80" y="170" font-size="12" fill="#4b5563">✓ 飞书接入简单</text><text x="80" y="195" font-size="12" fill="#4b5563">✓ 预置 50+ Skills</text><text x="80" y="220" font-size="12" fill="#4b5563">✓ 浏览器增强能力</text><text x="80" y="260" font-size="12" fill="#dc2626">✗ 关机即停止</text><text x="80" y="285" font-size="12" fill="#dc2626">✗ 无定时任务</text><text x="80" y="310" font-size="12" fill="#dc2626">✗ 依赖本地电脑</text><rect x="80" y="340" width="210" height="40" rx="8" fill="#EFF6FF"/><text x="185" y="365" text-anchor="middle" font-size="11" font-weight="600" fill="#2563EB">适合:非技术用户快速体验</text><rect x="350" y="80" width="250" height="320" rx="12" fill="white" stroke="#EA580C" stroke-width="2" filter="url(#shadow)"/><text x="475" y="110" text-anchor="middle" font-size="15" font-weight="700" fill="#EA580C">VPS 部署</text><text x="370" y="145" font-size="12" fill="#4b5563">✓ 7x24 小时运行</text><text x="370" y="170" font-size="12" fill="#4b5563">✓ Cron 定时任务</text><text x="370" y="195" font-size="12" fill="#4b5563">✓ 持久化记忆</text><text x="370" y="220" font-size="12" fill="#4b5563">✓ 多 IM 接入</text><text x="370" y="260" font-size="12" fill="#dc2626">✗ 需要技术基础</text><text x="370" y="285" font-size="12" fill="#dc2626">✗ 部署维护复杂</text><text x="370" y="310" font-size="12" fill="#dc2626">✗ 需要服务器成本</text><rect x="370" y="340" width="210" height="40" rx="8" fill="#FFF7ED"/><text x="475" y="365" text-anchor="middle" font-size="11" font-weight="600" fill="#EA580C">适合:需要全天候自主运行</text></svg>
